<?xml version="1.0" encoding="UTF-8" standalone="no"?>
<!-- Generator: Adobe Illustrator 19.0.0, SVG Export Plug-In . SVG Version: 6.00 Build 0)  -->

<svg
   version="1.1"
   id="Layer_1"
   x="0px"
   y="0px"
   viewBox="0 0 512 512"
   style="enable-background:new 0 0 512 512;"
   xml:space="preserve"
   sodipodi:docname="404.svg"
   inkscape:version="1.1.1 (c3084ef, 2021-09-22)"
   xmlns:inkscape="http://www.inkscape.org/namespaces/inkscape"
   xmlns:sodipodi="http://sodipodi.sourceforge.net/DTD/sodipodi-0.dtd"
   xmlns="http://www.w3.org/2000/svg"
   xmlns:svg="http://www.w3.org/2000/svg"><defs
   id="defs974" /><sodipodi:namedview
   id="namedview972"
   pagecolor="#ffffff"
   bordercolor="#666666"
   borderopacity="1.0"
   inkscape:pageshadow="2"
   inkscape:pageopacity="0.0"
   inkscape:pagecheckerboard="0"
   showgrid="false"
   inkscape:zoom="1.2128906"
   inkscape:cx="256"
   inkscape:cy="256"
   inkscape:window-width="1312"
   inkscape:window-height="847"
   inkscape:window-x="0"
   inkscape:window-y="25"
   inkscape:window-maximized="0"
   inkscape:current-layer="Layer_1" />



<g
   id="g941">
</g>
<g
   id="g943">
</g>
<g
   id="g945">
</g>
<g
   id="g947">
</g>
<g
   id="g949">
</g>
<g
   id="g951">
</g>
<g
   id="g953">
</g>
<g
   id="g955">
</g>
<g
   id="g957">
</g>
<g
   id="g959">
</g>
<g
   id="g961">
</g>
<g
   id="g963">
</g>
<g
   id="g965">
</g>
<g
   id="g967">
</g>
<g
   id="g969">
</g>
<path
   d="m 213.54516,145.00769 c 6.20075,0 11.2589,-2.67758 11.2589,-5.95987 0,-3.28229 -5.05815,-5.95925 -11.2589,-5.95925 -6.20212,0 -11.25958,2.67696 -11.25958,5.95925 0,3.28229 5.05746,5.95987 11.25958,5.95987"
   style="fill:#000000;fill-opacity:1;fill-rule:evenodd;stroke:none;stroke-width:0.647465"
   id="path9432"
   inkscape:connector-curvature="0" /><path
   d="m 445.72408,290.08176 c 22.8002,31.10649 -77.12808,5.40985 -129.20279,20.79379 20.36015,-8.87528 57.61037,-24.34402 77.97121,-33.2193 z"
   style="fill:#000000;fill-opacity:1;fill-rule:evenodd;stroke:none;stroke-width:0.647465"
   id="path9434"
   inkscape:connector-curvature="0" /><path
   d="M 70.425824,307.01989 C 168.65213,323.40246 264.93431,278.78026 351.33827,265.74696 345.63139,190.35444 290.33352,144.54555 213.89579,138.66803 99.703054,144.95852 68.825494,213.79814 70.425824,307.01989"
   style="fill:#ff7d00;fill-opacity:1;fill-rule:evenodd;stroke:none;stroke-width:0.647465"
   id="path9436"
   inkscape:connector-curvature="0" /><path
   d="m 70.425824,307.01989 c 29.15649,4.8629 58.141756,4.35098 86.747756,0.88617 C 152.25527,240.31335 145.6766,171.94263 213.89579,138.66803 99.703054,144.95852 68.825494,213.79814 70.425824,307.01989"
   style="fill:#ff7d00;fill-opacity:1;fill-rule:evenodd;stroke:none;stroke-width:0.647465"
   id="path9438"
   inkscape:connector-curvature="0" /><path
   d="m 212.44348,139.38766 c -62.25786,30.67569 -63.80361,111.12286 -55.71808,162.38646 -4.72389,-73.13161 10.11698,-137.29945 55.71808,-162.38646"
   style="fill:#000000;fill-opacity:1;fill-rule:evenodd;stroke:none;stroke-width:0.647465"
   id="path9440"
   inkscape:connector-curvature="0" /><path
   d="m 156.7254,301.77412 c -6.11275,-59.20354 -5.43265,-121.73115 45.24093,-155.50415 3.25249,-2.52395 6.73692,-4.82481 10.47715,-6.88231 -66.99335,28.43075 -66.27095,109.95277 -55.71808,162.38646"
   style="fill:#000000;fill-opacity:1;fill-rule:evenodd;stroke:none;stroke-width:0.647465"
   id="path9442"
   inkscape:connector-curvature="0" /><path
   d="m 220.954,140.99777 c 65.57789,23.7178 68.9484,83.20526 66.40943,122.84103 C 284.17438,207.29502 269.27007,160.39531 220.954,140.99777"
   style="fill:#000000;fill-opacity:1;fill-rule:evenodd;stroke:none;stroke-width:0.647465"
   id="path9444"
   inkscape:connector-curvature="0" /><path
   d="m 157.17358,307.90606 c 45.14133,10.62551 88.95043,35.60804 135.42263,31.87897 61.78581,-4.95939 87.44833,-62.2142 153.12787,-49.70327 l -94.38581,-24.3348 c -53.46153,-18.40689 -129.44358,28.10566 -194.16469,42.1591"
   style="fill:#ff7d00;fill-opacity:1;fill-rule:evenodd;stroke:none;stroke-width:0.647465"
   id="path9446"
   inkscape:connector-curvature="0" /><path
   d="m 346.55912,264.29295 c -49.79565,-13.34119 -117.39203,24.62916 -177.38583,40.6891 59.12816,-13.56304 125.57579,-47.66666 177.38583,-40.6891"
   style="fill:#000000;fill-opacity:1;fill-rule:evenodd;stroke:none;stroke-width:0.647465"
   id="path9448"
   inkscape:connector-curvature="0" /><g
   id="g927">
	<g
   id="g925">
		<path
   d="M256,0C114.842,0,0,114.842,0,256s114.842,256,256,256s256-114.842,256-256S397.158,0,256,0z M256,487.619    C128.284,487.619,24.381,383.716,24.381,256S128.284,24.381,256,24.381S487.619,128.284,487.619,256S383.716,487.619,256,487.619z    "
   id="path923" />
	</g>
</g><g
   id="g933">
	<g
   id="g931">
		<path
   d="M387.702,101.227c-0.217-3.49-1.921-6.718-4.682-8.865c-36.668-28.523-80.59-43.6-127.02-43.6    C141.729,48.762,48.762,141.729,48.762,256c0,46.429,15.076,90.352,43.599,127.02c2.148,2.76,5.376,4.465,8.865,4.682    c0.254,0.016,0.506,0.024,0.758,0.024c3.222,0,6.326-1.278,8.619-3.571l273.553-273.552    C386.628,108.132,387.92,104.716,387.702,101.227z M103.492,356.786C83.593,326.872,73.143,292.303,73.143,256    c0-100.827,82.03-182.857,182.857-182.857c36.305,0,70.873,10.451,100.787,30.349L103.492,356.786z"
   id="path929" />
	</g>
</g><g
   id="g939">
	<g
   id="g937">
		<path
   d="M419.639,128.98c-2.148-2.76-5.376-4.465-8.865-4.682c-3.489-0.223-6.905,1.074-9.377,3.546L127.844,401.396    c-2.472,2.472-3.764,5.888-3.546,9.377c0.217,3.49,1.921,6.718,4.682,8.865c36.668,28.523,80.59,43.6,127.02,43.6    c114.271,0,207.238-92.967,207.238-207.238C463.238,209.571,448.162,165.648,419.639,128.98z M256,438.857    c-36.304,0-70.873-10.451-100.787-30.349l253.294-253.294c19.901,29.914,30.351,64.483,30.351,100.786    C438.857,356.827,356.827,438.857,256,438.857z"
   id="path935" />
	</g>
</g></svg>
