<svg xmlns="http://www.w3.org/2000/svg" version="1.1" xmlns:xlink="http://www.w3.org/1999/xlink" xmlns:svgjs="http://svgjs.com/svgjs" width="600" height="600"><svg version="1.1" id="SvgjsSvg1017" xml:space="preserve" width="740.17926" height="400" viewBox="0 0 740.17926 449.2691" sodipodi:docname="crhat.svg" inkscape:version="1.1.1 (c3084ef, 2021-09-22)" xmlns:inkscape="http://www.inkscape.org/namespaces/inkscape" xmlns:sodipodi="http://sodipodi.sourceforge.net/DTD/sodipodi-0.dtd" xmlns="http://www.w3.org/2000/svg" xmlns:svg="http://www.w3.org/2000/svg" xmlns:rdf="http://www.w3.org/1999/02/22-rdf-syntax-ns#" xmlns:cc="http://creativecommons.org/ns#" xmlns:dc="http://purl.org/dc/elements/1.1/"><metadata id="SvgjsMetadata1016"><rdf:rdf><cc:work rdf:about=""><dc:format>image/svg+xml</dc:format><dc:type rdf:resource="http://purl.org/dc/dcmitype/StillImage"></dc:type></cc:work></rdf:rdf></metadata><defs id="SvgjsDefs1015"><clipPath clipPathUnits="userSpaceOnUse" id="SvgjsClipPath1014"><path d="M 0,600 H 600 V 0 H 0 Z" id="SvgjsPath1013" inkscape:connector-curvature="0"></path></clipPath></defs><sodipodi:namedview pagecolor="#ffffff" bordercolor="#666666" borderopacity="1" objecttolerance="10" gridtolerance="10" guidetolerance="10" inkscape:pageopacity="0" inkscape:pageshadow="2" inkscape:window-width="1440" inkscape:window-height="847" id="SvgjsSodipodi:namedview1012" showgrid="false" inkscape:zoom="1.0013867" inkscape:cx="389.95924" inkscape:cy="186.24174" inkscape:window-x="0" inkscape:window-y="25" inkscape:window-maximized="0" inkscape:current-layer="g9426" inkscape:pagecheckerboard="0"></sodipodi:namedview><g id="SvgjsG1011" inkscape:groupmode="layer" inkscape:label="cap-baseball-publicdomainvectors.org" transform="matrix(1.3333333,0,0,-1.3333333,-47.724512,777.61065)"><g id="SvgjsG1010"><g id="SvgjsG1009" clip-path="url(#clipPath9430)"><path d="m 245.685,563.813 c 9.09,0 16.505,4.357 16.505,9.698 0,5.341 -7.415,9.697 -16.505,9.697 -9.092,0 -16.506,-4.356 -16.506,-9.697 0,-5.341 7.414,-9.698 16.506,-9.698" style="fill:#000000;fill-opacity:1;fill-rule:evenodd;stroke:none" id="SvgjsPath1008" inkscape:connector-curvature="0"></path><path d="m 586.048,327.746 c 33.424,-50.617 -113.066,-8.803 -189.405,-33.836 29.847,14.442 84.454,39.613 114.302,54.055 z" style="fill:#d45500;fill-opacity:1;fill-rule:evenodd;stroke:none" id="SvgjsPath1007" inkscape:connector-curvature="0"></path><path d="m 35.879,300.184 c 143.995,-26.658 285.14,45.952 411.804,67.16 -8.366,122.68 -89.43,197.221 -201.484,206.785 C 78.798,563.893 33.533,451.876 35.879,300.184" style="fill:#ff7d00;fill-opacity:1;fill-rule:evenodd;stroke:none" id="SvgjsPath1006" inkscape:connector-curvature="0"></path><path d="m 35.879,300.184 c 42.742,-7.913 85.233,-7.08 127.168,-1.442 -7.21,109.988 -16.854,221.242 83.152,275.387 C 78.798,563.893 33.533,451.876 35.879,300.184" style="fill:#ff7d00;fill-opacity:1;fill-rule:evenodd;stroke:none" id="SvgjsPath1005" inkscape:connector-curvature="0"></path><path d="M 244.07,572.958 C 152.803,523.042 150.537,392.137 162.39,308.72 c -6.925,119.001 14.831,223.416 81.68,264.238" style="fill:#000000;fill-opacity:1;fill-rule:evenodd;stroke:none" id="SvgjsPath1004" inkscape:connector-curvature="0"></path><path d="m 162.39,308.72 c -8.961,96.337 -7.964,198.083 66.321,253.039 4.768,4.107 9.876,7.851 15.359,11.199 C 145.861,526.695 146.92,394.041 162.39,308.72" style="fill:#000000;fill-opacity:1;fill-rule:evenodd;stroke:none" id="SvgjsPath1003" inkscape:connector-curvature="0"></path><path d="m 256.546,570.338 c 96.134,-38.594 101.075,-135.393 97.353,-199.889 -4.675,92.009 -26.524,168.325 -97.353,199.889" style="fill:#000000;fill-opacity:1;fill-rule:evenodd;stroke:none" id="SvgjsPath1002" inkscape:connector-curvature="0"></path><path d="m 163.047,298.742 c 66.175,-17.29 130.397,-57.942 198.523,-51.874 90.575,8.07 128.195,101.236 224.478,80.878 L 447.683,367.344 C 369.311,397.296 257.925,321.61 163.047,298.742" style="fill:#ff7d00;fill-opacity:1;fill-rule:evenodd;stroke:none" id="SvgjsPath1001" inkscape:connector-curvature="0"></path><path d="m 440.677,369.71 c -72.998,21.709 -172.091,-40.077 -260.039,-66.21 86.679,22.07 184.088,77.564 260.039,66.21" style="fill:#000000;fill-opacity:1;fill-rule:evenodd;stroke:none" id="SvgjsPath1000" inkscape:connector-curvature="0"></path></g></g></g></svg><style>@media (prefers-color-scheme: light) { :root { filter: none; } }
</style></svg>