<svg xmlns="http://www.w3.org/2000/svg" version="1.1" xmlns:xlink="http://www.w3.org/1999/xlink" xmlns:svgjs="http://svgjs.com/svgjs" width="1440" height="560" preserveAspectRatio="none" viewBox="0 0 1440 560">
    <g mask="url(&quot;#SvgjsMask1172&quot;)" fill="none">
        <rect width="1440" height="560" x="0" y="0" fill="rgba(235, 235, 235, 1)"></rect>
        <path d="M132.33 62.92L226.73 117.42L226.73 226.42L132.33 280.92L37.93 226.42L37.93 117.42zM509.93 62.92L604.33 117.42L604.33 226.42L509.93 280.92L415.53 226.42L415.53 117.42zM604.33 -100.58L698.73 -46.08L698.73 62.92L604.33 117.42L509.93 62.92L509.93 -46.08zM887.53 389.92L981.92 444.42L981.92 553.42L887.53 607.92L793.13 553.42L793.13 444.42zM981.92 226.42L1076.32 280.92L1076.32 389.92L981.92 444.42L887.53 389.92L887.53 280.92zM1170.72 -100.58L1265.12 -46.08L1265.12 62.92L1170.72 117.42L1076.32 62.92L1076.32 -46.08zM1265.12 62.92L1359.52 117.42L1359.52 226.42L1265.12 280.92L1170.72 226.42L1170.72 117.42zM1170.72 226.42L1265.12 280.92L1265.12 389.92L1170.72 444.42L1076.32 389.92L1076.32 280.92zM1265.12 389.92L1359.52 444.42L1359.52 553.42L1265.12 607.92L1170.72 553.42L1170.72 444.42zM1453.92 62.92L1548.32 117.42L1548.32 226.42L1453.92 280.92L1359.52 226.42L1359.52 117.42zM1453.92 389.92L1548.32 444.42L1548.32 553.42L1453.92 607.92L1359.52 553.42L1359.52 444.42z" stroke="rgba(154, 154, 154, 1)" stroke-width="2"></path>
        <path d="M84.47 331.66L126.9 356.16L126.9 405.16L84.47 429.66L42.03 405.16L42.03 356.16zM126.9 -35.84L169.34 -11.34L169.34 37.66L126.9 62.16L84.47 37.66L84.47 -11.34zM126.9 258.16L169.34 282.66L169.34 331.66L126.9 356.16L84.47 331.66L84.47 282.66zM126.9 405.16L169.34 429.66L169.34 478.66L126.9 503.16L84.47 478.66L84.47 429.66zM126.9 552.16L169.34 576.66L169.34 625.66L126.9 650.16L84.47 625.66L84.47 576.66zM254.21 37.66L296.65 62.16L296.65 111.16L254.21 135.66L211.78 111.16L211.78 62.16zM211.78 111.16L254.21 135.66L254.21 184.66L211.78 209.16L169.34 184.66L169.34 135.66zM211.78 552.16L254.21 576.66L254.21 625.66L211.78 650.16L169.34 625.66L169.34 576.66zM296.65 -35.84L339.09 -11.34L339.09 37.66L296.65 62.16L254.21 37.66L254.21 -11.34zM339.09 37.66L381.52 62.16L381.52 111.16L339.09 135.66L296.65 111.16L296.65 62.16zM339.09 331.66L381.52 356.16L381.52 405.16L339.09 429.66L296.65 405.16L296.65 356.16zM296.65 405.16L339.09 429.66L339.09 478.66L296.65 503.16L254.21 478.66L254.21 429.66zM381.52 258.16L423.96 282.66L423.96 331.66L381.52 356.16L339.09 331.66L339.09 282.66zM423.96 331.66L466.39 356.16L466.39 405.16L423.96 429.66L381.52 405.16L381.52 356.16zM466.39 -35.84L508.83 -11.34L508.83 37.66L466.39 62.16L423.96 37.66L423.96 -11.34zM508.83 184.66L551.27 209.16L551.27 258.16L508.83 282.66L466.39 258.16L466.39 209.16zM466.39 258.16L508.83 282.66L508.83 331.66L466.39 356.16L423.96 331.66L423.96 282.66zM508.83 331.66L551.27 356.16L551.27 405.16L508.83 429.66L466.39 405.16L466.39 356.16zM593.7 478.66L636.14 503.16L636.14 552.16L593.7 576.66L551.27 552.16L551.27 503.16zM678.58 184.66L721.01 209.16L721.01 258.16L678.58 282.66L636.14 258.16L636.14 209.16zM636.14 258.16L678.58 282.66L678.58 331.66L636.14 356.16L593.7 331.66L593.7 282.66zM678.58 331.66L721.01 356.16L721.01 405.16L678.58 429.66L636.14 405.16L636.14 356.16zM678.58 478.66L721.01 503.16L721.01 552.16L678.58 576.66L636.14 552.16L636.14 503.16zM721.01 111.16L763.45 135.66L763.45 184.66L721.01 209.16L678.58 184.66L678.58 135.66zM848.32 37.66L890.76 62.16L890.76 111.16L848.32 135.66L805.89 111.16L805.89 62.16zM805.89 111.16L848.32 135.66L848.32 184.66L805.89 209.16L763.45 184.66L763.45 135.66zM848.32 478.66L890.76 503.16L890.76 552.16L848.32 576.66L805.89 552.16L805.89 503.16zM890.76 552.16L933.2 576.66L933.2 625.66L890.76 650.16L848.32 625.66L848.32 576.66zM1018.07 184.66L1060.5 209.16L1060.5 258.16L1018.07 282.66L975.63 258.16L975.63 209.16zM975.63 258.16L1018.07 282.66L1018.07 331.66L975.63 356.16L933.2 331.66L933.2 282.66zM1018.07 331.66L1060.5 356.16L1060.5 405.16L1018.07 429.66L975.63 405.16L975.63 356.16zM1060.5 -35.84L1102.94 -11.34L1102.94 37.66L1060.5 62.16L1018.07 37.66L1018.07 -11.34zM1102.94 37.66L1145.38 62.16L1145.38 111.16L1102.94 135.66L1060.5 111.16L1060.5 62.16zM1060.5 405.16L1102.94 429.66L1102.94 478.66L1060.5 503.16L1018.07 478.66L1018.07 429.66zM1060.5 552.16L1102.94 576.66L1102.94 625.66L1060.5 650.16L1018.07 625.66L1018.07 576.66zM1145.38 111.16L1187.81 135.66L1187.81 184.66L1145.38 209.16L1102.94 184.66L1102.94 135.66zM1145.38 405.16L1187.81 429.66L1187.81 478.66L1145.38 503.16L1102.94 478.66L1102.94 429.66zM1187.81 478.66L1230.25 503.16L1230.25 552.16L1187.81 576.66L1145.38 552.16L1145.38 503.16zM1145.38 552.16L1187.81 576.66L1187.81 625.66L1145.38 650.16L1102.94 625.66L1102.94 576.66zM1272.69 478.66L1315.12 503.16L1315.12 552.16L1272.69 576.66L1230.25 552.16L1230.25 503.16zM1315.12 111.16L1357.56 135.66L1357.56 184.66L1315.12 209.16L1272.69 184.66L1272.69 135.66zM1357.56 331.66L1400 356.16L1400 405.16L1357.56 429.66L1315.12 405.16L1315.12 356.16zM1357.56 478.66L1400 503.16L1400 552.16L1357.56 576.66L1315.12 552.16L1315.12 503.16zM1442.43 184.66L1484.87 209.16L1484.87 258.16L1442.43 282.66L1400 258.16L1400 209.16zM1442.43 331.66L1484.87 356.16L1484.87 405.16L1442.43 429.66L1400 405.16L1400 356.16zM1442.43 478.66L1484.87 503.16L1484.87 552.16L1442.43 576.66L1400 552.16L1400 503.16zM1400 552.16L1442.43 576.66L1442.43 625.66L1400 650.16L1357.56 625.66L1357.56 576.66z" stroke="rgba(218, 218, 218, 1)" stroke-width="2"></path>
    </g>
    <defs>
        <mask id="SvgjsMask1172">
            <rect width="1440" height="560" fill="#ffffff"></rect>
        </mask>
    </defs>
</svg>