<svg xmlns="http://www.w3.org/2000/svg" version="1.1" xmlns:xlink="http://www.w3.org/1999/xlink" xmlns:svgjs="http://svgjs.com/svgjs" width="400" height="75" preserveAspectRatio="none" viewBox="0 0 400 75">
    <g mask="url(&quot;#SvgjsMask1009&quot;)" fill="none">
        <rect width="400" height="75" x="0" y="0" fill="rgba(0, 0, 0, 1)"></rect>
        <g transform="translate(0, 0)" stroke-linecap="round">
            <path d="M2.5 10.14 L2.5 64.86" stroke-width="3.75" stroke="rgba(255, 125, 0, 0.34)"></path>
            <path d="M7.5 27.31 L7.5 47.69" stroke-width="3.75" stroke="rgba(255, 125, 0, 0.34)"></path>
            <path d="M12.5 22.46 L12.5 52.54" stroke-width="3.75" stroke="rgba(255, 125, 0, 0.34)"></path>
            <path d="M17.5 20.96 L17.5 54.03" stroke-width="3.75" stroke="rgba(255, 125, 0, 0.34)"></path>
            <path d="M22.5 24.52 L22.5 50.48" stroke-width="3.75" stroke="rgba(255, 125, 0, 0.34)"></path>
            <path d="M27.5 16.35 L27.5 58.65" stroke-width="3.75" stroke="rgba(255, 125, 0, 0.34)"></path>
            <path d="M32.5 10.1 L32.5 64.9" stroke-width="3.75" stroke="rgba(255, 125, 0, 0.34)"></path>
            <path d="M37.5 24.49 L37.5 50.51" stroke-width="3.75" stroke="rgba(255, 125, 0, 0.34)"></path>
            <path d="M42.5 6.61 L42.5 68.39" stroke-width="3.75" stroke="rgba(255, 125, 0, 0.34)"></path>
            <path d="M47.5 30.82 L47.5 44.17" stroke-width="3.75" stroke="rgba(255, 125, 0, 0.34)"></path>
            <path d="M52.5 19.86 L52.5 55.14" stroke-width="3.75" stroke="rgba(255, 125, 0, 0.34)"></path>
            <path d="M57.5 31.89 L57.5 43.11" stroke-width="3.75" stroke="rgba(255, 125, 0, 0.34)"></path>
            <path d="M62.5 11.39 L62.5 63.61" stroke-width="3.75" stroke="rgba(255, 125, 0, 0.34)"></path>
            <path d="M67.5 18.3 L67.5 56.7" stroke-width="3.75" stroke="rgba(255, 125, 0, 0.34)"></path>
            <path d="M72.5 4.47 L72.5 70.53" stroke-width="3.75" stroke="rgba(255, 125, 0, 0.34)"></path>
            <path d="M77.5 20.36 L77.5 54.64" stroke-width="3.75" stroke="rgba(255, 125, 0, 0.34)"></path>
            <path d="M82.5 12.95 L82.5 62.05" stroke-width="3.75" stroke="rgba(255, 125, 0, 0.34)"></path>
            <path d="M87.5 20.69 L87.5 54.31" stroke-width="3.75" stroke="rgba(255, 125, 0, 0.34)"></path>
            <path d="M92.5 32.3 L92.5 42.7" stroke-width="3.75" stroke="rgba(255, 125, 0, 0.34)"></path>
            <path d="M97.5 18.27 L97.5 56.73" stroke-width="3.75" stroke="rgba(255, 125, 0, 0.34)"></path>
            <path d="M102.5 31.8 L102.5 43.2" stroke-width="3.75" stroke="rgba(255, 125, 0, 0.34)"></path>
            <path d="M107.5 16.51 L107.5 58.49" stroke-width="3.75" stroke="rgba(255, 125, 0, 0.34)"></path>
            <path d="M112.5 29.74 L112.5 45.26" stroke-width="3.75" stroke="rgba(255, 125, 0, 0.34)"></path>
            <path d="M117.5 7.07 L117.5 67.94" stroke-width="3.75" stroke="rgba(255, 125, 0, 0.34)"></path>
            <path d="M122.5 22.43 L122.5 52.58" stroke-width="3.75" stroke="rgba(255, 125, 0, 0.34)"></path>
            <path d="M127.5 25.41 L127.5 49.59" stroke-width="3.75" stroke="rgba(255, 125, 0, 0.34)"></path>
            <path d="M132.5 7.36 L132.5 67.64" stroke-width="3.75" stroke="rgba(255, 125, 0, 0.34)"></path>
            <path d="M137.5 24.14 L137.5 50.86" stroke-width="3.75" stroke="rgba(255, 125, 0, 0.34)"></path>
            <path d="M142.5 4.93 L142.5 70.07" stroke-width="3.75" stroke="rgba(255, 125, 0, 0.34)"></path>
            <path d="M147.5 32.16 L147.5 42.84" stroke-width="3.75" stroke="rgba(255, 125, 0, 0.34)"></path>
            <path d="M152.5 13.79 L152.5 61.21" stroke-width="3.75" stroke="rgba(255, 125, 0, 0.34)"></path>
            <path d="M157.5 18.14 L157.5 56.86" stroke-width="3.75" stroke="rgba(255, 125, 0, 0.34)"></path>
            <path d="M162.5 24.63 L162.5 50.37" stroke-width="3.75" stroke="rgba(255, 125, 0, 0.34)"></path>
            <path d="M167.5 15.79 L167.5 59.22" stroke-width="3.75" stroke="rgba(255, 125, 0, 0.34)"></path>
            <path d="M172.5 7.25 L172.5 67.75" stroke-width="3.75" stroke="rgba(255, 125, 0, 0.34)"></path>
            <path d="M177.5 2.67 L177.5 72.33" stroke-width="3.75" stroke="rgba(255, 125, 0, 0.34)"></path>
            <path d="M182.5 9.04 L182.5 65.96" stroke-width="3.75" stroke="rgba(255, 125, 0, 0.34)"></path>
            <path d="M187.5 31.91 L187.5 43.09" stroke-width="3.75" stroke="rgba(255, 125, 0, 0.34)"></path>
            <path d="M192.5 24.49 L192.5 50.51" stroke-width="3.75" stroke="rgba(255, 125, 0, 0.34)"></path>
            <path d="M197.5 31.12 L197.5 43.88" stroke-width="3.75" stroke="rgba(255, 125, 0, 0.34)"></path>
            <path d="M202.5 4.13 L202.5 70.88" stroke-width="3.75" stroke="rgba(255, 125, 0, 0.34)"></path>
            <path d="M207.5 9.94 L207.5 65.06" stroke-width="3.75" stroke="rgba(255, 125, 0, 0.34)"></path>
            <path d="M212.5 10.95 L212.5 64.05" stroke-width="3.75" stroke="rgba(255, 125, 0, 0.34)"></path>
            <path d="M217.5 31.89 L217.5 43.11" stroke-width="3.75" stroke="rgba(255, 125, 0, 0.34)"></path>
            <path d="M222.5 15.98 L222.5 59.02" stroke-width="3.75" stroke="rgba(255, 125, 0, 0.34)"></path>
            <path d="M227.5 2.7 L227.5 72.31" stroke-width="3.75" stroke="rgba(255, 125, 0, 0.34)"></path>
            <path d="M232.5 13.45 L232.5 61.55" stroke-width="3.75" stroke="rgba(255, 125, 0, 0.34)"></path>
            <path d="M237.5 15.9 L237.5 59.1" stroke-width="3.75" stroke="rgba(255, 125, 0, 0.34)"></path>
            <path d="M242.5 11.02 L242.5 63.98" stroke-width="3.75" stroke="rgba(255, 125, 0, 0.34)"></path>
            <path d="M247.5 24.15 L247.5 50.85" stroke-width="3.75" stroke="rgba(255, 125, 0, 0.34)"></path>
            <path d="M252.5 20.11 L252.5 54.89" stroke-width="3.75" stroke="rgba(255, 125, 0, 0.34)"></path>
            <path d="M257.5 25.81 L257.5 49.19" stroke-width="3.75" stroke="rgba(255, 125, 0, 0.34)"></path>
            <path d="M262.5 8.05 L262.5 66.95" stroke-width="3.75" stroke="rgba(255, 125, 0, 0.34)"></path>
            <path d="M267.5 3.35 L267.5 71.65" stroke-width="3.75" stroke="rgba(255, 125, 0, 0.34)"></path>
            <path d="M272.5 25.1 L272.5 49.9" stroke-width="3.75" stroke="rgba(255, 125, 0, 0.34)"></path>
            <path d="M277.5 17.82 L277.5 57.17" stroke-width="3.75" stroke="rgba(255, 125, 0, 0.34)"></path>
            <path d="M282.5 9.84 L282.5 65.16" stroke-width="3.75" stroke="rgba(255, 125, 0, 0.34)"></path>
            <path d="M287.5 27.87 L287.5 47.13" stroke-width="3.75" stroke="rgba(255, 125, 0, 0.34)"></path>
            <path d="M292.5 13.95 L292.5 61.05" stroke-width="3.75" stroke="rgba(255, 125, 0, 0.34)"></path>
            <path d="M297.5 25.12 L297.5 49.88" stroke-width="3.75" stroke="rgba(255, 125, 0, 0.34)"></path>
            <path d="M302.5 18.11 L302.5 56.89" stroke-width="3.75" stroke="rgba(255, 125, 0, 0.34)"></path>
            <path d="M307.5 6.09 L307.5 68.91" stroke-width="3.75" stroke="rgba(255, 125, 0, 0.34)"></path>
            <path d="M312.5 2.62 L312.5 72.38" stroke-width="3.75" stroke="rgba(255, 125, 0, 0.34)"></path>
            <path d="M317.5 12.14 L317.5 62.86" stroke-width="3.75" stroke="rgba(255, 125, 0, 0.34)"></path>
            <path d="M322.5 17.35 L322.5 57.65" stroke-width="3.75" stroke="rgba(255, 125, 0, 0.34)"></path>
            <path d="M327.5 13.8 L327.5 61.2" stroke-width="3.75" stroke="rgba(255, 125, 0, 0.34)"></path>
            <path d="M332.5 15.25 L332.5 59.75" stroke-width="3.75" stroke="rgba(255, 125, 0, 0.34)"></path>
            <path d="M337.5 8.87 L337.5 66.13" stroke-width="3.75" stroke="rgba(255, 125, 0, 0.34)"></path>
            <path d="M342.5 24.11 L342.5 50.89" stroke-width="3.75" stroke="rgba(255, 125, 0, 0.34)"></path>
            <path d="M347.5 32.84 L347.5 42.16" stroke-width="3.75" stroke="rgba(255, 125, 0, 0.34)"></path>
            <path d="M352.5 23.84 L352.5 51.16" stroke-width="3.75" stroke="rgba(255, 125, 0, 0.34)"></path>
            <path d="M357.5 28.68 L357.5 46.33" stroke-width="3.75" stroke="rgba(255, 125, 0, 0.34)"></path>
            <path d="M362.5 17.14 L362.5 57.86" stroke-width="3.75" stroke="rgba(255, 125, 0, 0.34)"></path>
            <path d="M367.5 32.88 L367.5 42.12" stroke-width="3.75" stroke="rgba(255, 125, 0, 0.34)"></path>
            <path d="M372.5 13.91 L372.5 61.09" stroke-width="3.75" stroke="rgba(255, 125, 0, 0.34)"></path>
            <path d="M377.5 21.91 L377.5 53.09" stroke-width="3.75" stroke="rgba(255, 125, 0, 0.34)"></path>
            <path d="M382.5 28.52 L382.5 46.48" stroke-width="3.75" stroke="rgba(255, 125, 0, 0.34)"></path>
            <path d="M387.5 26.12 L387.5 48.88" stroke-width="3.75" stroke="rgba(255, 125, 0, 0.34)"></path>
            <path d="M392.5 4.41 L392.5 70.59" stroke-width="3.75" stroke="rgba(255, 125, 0, 0.34)"></path>
            <path d="M397.5 27.49 L397.5 47.51" stroke-width="3.75" stroke="rgba(255, 125, 0, 0.34)"></path>
        </g>
    </g>
    <defs>
        <mask id="SvgjsMask1009">
            <rect width="400" height="75" fill="#ffffff"></rect>
        </mask>
    </defs>
</svg>