<svg xmlns="http://www.w3.org/2000/svg" version="1.1" xmlns:xlink="http://www.w3.org/1999/xlink" xmlns:svgjs="http://svgjs.com/svgjs" width="1440" height="75" preserveAspectRatio="none" viewBox="0 0 1440 75">
    <g mask="url(&quot;#SvgjsMask1000&quot;)" fill="none">
        <rect width="1440" height="75" x="0" y="0" fill="rgba(0, 0, 0, 1)"></rect>
        <g transform="translate(0, 0)" stroke-linecap="round">
            <path d="M2.5 20.79 L2.5 54.21" stroke-width="3.75" stroke="rgba(255, 125, 0, 0.34)"></path>
            <path d="M7.5 30.57 L7.5 44.42" stroke-width="3.75" stroke="rgba(255, 125, 0, 0.34)"></path>
            <path d="M12.5 30.27 L12.5 44.73" stroke-width="3.75" stroke="rgba(255, 125, 0, 0.34)"></path>
            <path d="M17.5 11.83 L17.5 63.17" stroke-width="3.75" stroke="rgba(255, 125, 0, 0.34)"></path>
            <path d="M22.5 27.3 L22.5 47.7" stroke-width="3.75" stroke="rgba(255, 125, 0, 0.34)"></path>
            <path d="M27.5 13.57 L27.5 61.43" stroke-width="3.75" stroke="rgba(255, 125, 0, 0.34)"></path>
            <path d="M32.5 33.34 L32.5 41.66" stroke-width="3.75" stroke="rgba(255, 125, 0, 0.34)"></path>
            <path d="M37.5 25.31 L37.5 49.69" stroke-width="3.75" stroke="rgba(255, 125, 0, 0.34)"></path>
            <path d="M42.5 12.57 L42.5 62.44" stroke-width="3.75" stroke="rgba(255, 125, 0, 0.34)"></path>
            <path d="M47.5 26.31 L47.5 48.69" stroke-width="3.75" stroke="rgba(255, 125, 0, 0.34)"></path>
            <path d="M52.5 15.48 L52.5 59.52" stroke-width="3.75" stroke="rgba(255, 125, 0, 0.34)"></path>
            <path d="M57.5 6.54 L57.5 68.47" stroke-width="3.75" stroke="rgba(255, 125, 0, 0.34)"></path>
            <path d="M62.5 11.16 L62.5 63.84" stroke-width="3.75" stroke="rgba(255, 125, 0, 0.34)"></path>
            <path d="M67.5 12.93 L67.5 62.08" stroke-width="3.75" stroke="rgba(255, 125, 0, 0.34)"></path>
            <path d="M72.5 18.14 L72.5 56.86" stroke-width="3.75" stroke="rgba(255, 125, 0, 0.34)"></path>
            <path d="M77.5 9.58 L77.5 65.42" stroke-width="3.75" stroke="rgba(255, 125, 0, 0.34)"></path>
            <path d="M82.5 26.43 L82.5 48.58" stroke-width="3.75" stroke="rgba(255, 125, 0, 0.34)"></path>
            <path d="M87.5 10.07 L87.5 64.92" stroke-width="3.75" stroke="rgba(255, 125, 0, 0.34)"></path>
            <path d="M92.5 29.47 L92.5 45.53" stroke-width="3.75" stroke="rgba(255, 125, 0, 0.34)"></path>
            <path d="M97.5 21.14 L97.5 53.86" stroke-width="3.75" stroke="rgba(255, 125, 0, 0.34)"></path>
            <path d="M102.5 6.23 L102.5 68.77" stroke-width="3.75" stroke="rgba(255, 125, 0, 0.34)"></path>
            <path d="M107.5 30.05 L107.5 44.95" stroke-width="3.75" stroke="rgba(255, 125, 0, 0.34)"></path>
            <path d="M112.5 12.39 L112.5 62.61" stroke-width="3.75" stroke="rgba(255, 125, 0, 0.34)"></path>
            <path d="M117.5 4.7 L117.5 70.3" stroke-width="3.75" stroke="rgba(255, 125, 0, 0.34)"></path>
            <path d="M122.5 17.45 L122.5 57.55" stroke-width="3.75" stroke="rgba(255, 125, 0, 0.34)"></path>
            <path d="M127.5 28.68 L127.5 46.33" stroke-width="3.75" stroke="rgba(255, 125, 0, 0.34)"></path>
            <path d="M132.5 25.3 L132.5 49.7" stroke-width="3.75" stroke="rgba(255, 125, 0, 0.34)"></path>
            <path d="M137.5 12.13 L137.5 62.87" stroke-width="3.75" stroke="rgba(255, 125, 0, 0.34)"></path>
            <path d="M142.5 22.45 L142.5 52.55" stroke-width="3.75" stroke="rgba(255, 125, 0, 0.34)"></path>
            <path d="M147.5 15.35 L147.5 59.65" stroke-width="3.75" stroke="rgba(255, 125, 0, 0.34)"></path>
            <path d="M152.5 14.61 L152.5 60.39" stroke-width="3.75" stroke="rgba(255, 125, 0, 0.34)"></path>
            <path d="M157.5 10.51 L157.5 64.49" stroke-width="3.75" stroke="rgba(255, 125, 0, 0.34)"></path>
            <path d="M162.5 6.84 L162.5 68.16" stroke-width="3.75" stroke="rgba(255, 125, 0, 0.34)"></path>
            <path d="M167.5 29.53 L167.5 45.47" stroke-width="3.75" stroke="rgba(255, 125, 0, 0.34)"></path>
            <path d="M172.5 7.99 L172.5 67.01" stroke-width="3.75" stroke="rgba(255, 125, 0, 0.34)"></path>
            <path d="M177.5 22.74 L177.5 52.26" stroke-width="3.75" stroke="rgba(255, 125, 0, 0.34)"></path>
            <path d="M182.5 20.84 L182.5 54.16" stroke-width="3.75" stroke="rgba(255, 125, 0, 0.34)"></path>
            <path d="M187.5 21.82 L187.5 53.17" stroke-width="3.75" stroke="rgba(255, 125, 0, 0.34)"></path>
            <path d="M192.5 7.45 L192.5 67.55" stroke-width="3.75" stroke="rgba(255, 125, 0, 0.34)"></path>
            <path d="M197.5 24.01 L197.5 50.99" stroke-width="3.75" stroke="rgba(255, 125, 0, 0.34)"></path>
            <path d="M202.5 9.95 L202.5 65.05" stroke-width="3.75" stroke="rgba(255, 125, 0, 0.34)"></path>
            <path d="M207.5 27.6 L207.5 47.4" stroke-width="3.75" stroke="rgba(255, 125, 0, 0.34)"></path>
            <path d="M212.5 12.02 L212.5 62.98" stroke-width="3.75" stroke="rgba(255, 125, 0, 0.34)"></path>
            <path d="M217.5 6.56 L217.5 68.44" stroke-width="3.75" stroke="rgba(255, 125, 0, 0.34)"></path>
            <path d="M222.5 33.61 L222.5 41.39" stroke-width="3.75" stroke="rgba(255, 125, 0, 0.34)"></path>
            <path d="M227.5 19.11 L227.5 55.89" stroke-width="3.75" stroke="rgba(255, 125, 0, 0.34)"></path>
            <path d="M232.5 19.02 L232.5 55.98" stroke-width="3.75" stroke="rgba(255, 125, 0, 0.34)"></path>
            <path d="M237.5 17.73 L237.5 57.27" stroke-width="3.75" stroke="rgba(255, 125, 0, 0.34)"></path>
            <path d="M242.5 13.82 L242.5 61.18" stroke-width="3.75" stroke="rgba(255, 125, 0, 0.34)"></path>
            <path d="M247.5 3.5 L247.5 71.5" stroke-width="3.75" stroke="rgba(255, 125, 0, 0.34)"></path>
            <path d="M252.5 6.37 L252.5 68.63" stroke-width="3.75" stroke="rgba(255, 125, 0, 0.34)"></path>
            <path d="M257.5 32.39 L257.5 42.61" stroke-width="3.75" stroke="rgba(255, 125, 0, 0.34)"></path>
            <path d="M262.5 33.73 L262.5 41.27" stroke-width="3.75" stroke="rgba(255, 125, 0, 0.34)"></path>
            <path d="M267.5 18.84 L267.5 56.16" stroke-width="3.75" stroke="rgba(255, 125, 0, 0.34)"></path>
            <path d="M272.5 11.38 L272.5 63.62" stroke-width="3.75" stroke="rgba(255, 125, 0, 0.34)"></path>
            <path d="M277.5 25.98 L277.5 49.02" stroke-width="3.75" stroke="rgba(255, 125, 0, 0.34)"></path>
            <path d="M282.5 20.55 L282.5 54.45" stroke-width="3.75" stroke="rgba(255, 125, 0, 0.34)"></path>
            <path d="M287.5 33.2 L287.5 41.8" stroke-width="3.75" stroke="rgba(255, 125, 0, 0.34)"></path>
            <path d="M292.5 27.73 L292.5 47.27" stroke-width="3.75" stroke="rgba(255, 125, 0, 0.34)"></path>
            <path d="M297.5 4.83 L297.5 70.17" stroke-width="3.75" stroke="rgba(255, 125, 0, 0.34)"></path>
            <path d="M302.5 6.28 L302.5 68.72" stroke-width="3.75" stroke="rgba(255, 125, 0, 0.34)"></path>
            <path d="M307.5 32.33 L307.5 42.67" stroke-width="3.75" stroke="rgba(255, 125, 0, 0.34)"></path>
            <path d="M312.5 32.94 L312.5 42.06" stroke-width="3.75" stroke="rgba(255, 125, 0, 0.34)"></path>
            <path d="M317.5 16.59 L317.5 58.41" stroke-width="3.75" stroke="rgba(255, 125, 0, 0.34)"></path>
            <path d="M322.5 3.1 L322.5 71.9" stroke-width="3.75" stroke="rgba(255, 125, 0, 0.34)"></path>
            <path d="M327.5 29.98 L327.5 45.02" stroke-width="3.75" stroke="rgba(255, 125, 0, 0.34)"></path>
            <path d="M332.5 8.01 L332.5 66.99" stroke-width="3.75" stroke="rgba(255, 125, 0, 0.34)"></path>
            <path d="M337.5 5.68 L337.5 69.33" stroke-width="3.75" stroke="rgba(255, 125, 0, 0.34)"></path>
            <path d="M342.5 21.52 L342.5 53.48" stroke-width="3.75" stroke="rgba(255, 125, 0, 0.34)"></path>
            <path d="M347.5 26.75 L347.5 48.25" stroke-width="3.75" stroke="rgba(255, 125, 0, 0.34)"></path>
            <path d="M352.5 30.45 L352.5 44.55" stroke-width="3.75" stroke="rgba(255, 125, 0, 0.34)"></path>
            <path d="M357.5 22.16 L357.5 52.84" stroke-width="3.75" stroke="rgba(255, 125, 0, 0.34)"></path>
            <path d="M362.5 9.29 L362.5 65.71" stroke-width="3.75" stroke="rgba(255, 125, 0, 0.34)"></path>
            <path d="M367.5 30.05 L367.5 44.95" stroke-width="3.75" stroke="rgba(255, 125, 0, 0.34)"></path>
            <path d="M372.5 11.11 L372.5 63.89" stroke-width="3.75" stroke="rgba(255, 125, 0, 0.34)"></path>
            <path d="M377.5 24.64 L377.5 50.36" stroke-width="3.75" stroke="rgba(255, 125, 0, 0.34)"></path>
            <path d="M382.5 31.07 L382.5 43.93" stroke-width="3.75" stroke="rgba(255, 125, 0, 0.34)"></path>
            <path d="M387.5 6.37 L387.5 68.63" stroke-width="3.75" stroke="rgba(255, 125, 0, 0.34)"></path>
            <path d="M392.5 29.98 L392.5 45.02" stroke-width="3.75" stroke="rgba(255, 125, 0, 0.34)"></path>
            <path d="M397.5 10.36 L397.5 64.64" stroke-width="3.75" stroke="rgba(255, 125, 0, 0.34)"></path>
            <path d="M402.5 14.46 L402.5 60.54" stroke-width="3.75" stroke="rgba(255, 125, 0, 0.34)"></path>
            <path d="M407.5 29.91 L407.5 45.09" stroke-width="3.75" stroke="rgba(255, 125, 0, 0.34)"></path>
            <path d="M412.5 20.23 L412.5 54.77" stroke-width="3.75" stroke="rgba(255, 125, 0, 0.34)"></path>
            <path d="M417.5 32.72 L417.5 42.28" stroke-width="3.75" stroke="rgba(255, 125, 0, 0.34)"></path>
            <path d="M422.5 31.39 L422.5 43.61" stroke-width="3.75" stroke="rgba(255, 125, 0, 0.34)"></path>
            <path d="M427.5 18.36 L427.5 56.64" stroke-width="3.75" stroke="rgba(255, 125, 0, 0.34)"></path>
            <path d="M432.5 26.23 L432.5 48.77" stroke-width="3.75" stroke="rgba(255, 125, 0, 0.34)"></path>
            <path d="M437.5 33.17 L437.5 41.83" stroke-width="3.75" stroke="rgba(255, 125, 0, 0.34)"></path>
            <path d="M442.5 18.23 L442.5 56.77" stroke-width="3.75" stroke="rgba(255, 125, 0, 0.34)"></path>
            <path d="M447.5 15.87 L447.5 59.13" stroke-width="3.75" stroke="rgba(255, 125, 0, 0.34)"></path>
            <path d="M452.5 32.46 L452.5 42.54" stroke-width="3.75" stroke="rgba(255, 125, 0, 0.34)"></path>
            <path d="M457.5 29.55 L457.5 45.45" stroke-width="3.75" stroke="rgba(255, 125, 0, 0.34)"></path>
            <path d="M462.5 30.93 L462.5 44.07" stroke-width="3.75" stroke="rgba(255, 125, 0, 0.34)"></path>
            <path d="M467.5 30.86 L467.5 44.14" stroke-width="3.75" stroke="rgba(255, 125, 0, 0.34)"></path>
            <path d="M472.5 18.7 L472.5 56.3" stroke-width="3.75" stroke="rgba(255, 125, 0, 0.34)"></path>
            <path d="M477.5 11.46 L477.5 63.54" stroke-width="3.75" stroke="rgba(255, 125, 0, 0.34)"></path>
            <path d="M482.5 7.41 L482.5 67.59" stroke-width="3.75" stroke="rgba(255, 125, 0, 0.34)"></path>
            <path d="M487.5 24.04 L487.5 50.97" stroke-width="3.75" stroke="rgba(255, 125, 0, 0.34)"></path>
            <path d="M492.5 19.14 L492.5 55.86" stroke-width="3.75" stroke="rgba(255, 125, 0, 0.34)"></path>
            <path d="M497.5 3.55 L497.5 71.45" stroke-width="3.75" stroke="rgba(255, 125, 0, 0.34)"></path>
            <path d="M502.5 9.75 L502.5 65.25" stroke-width="3.75" stroke="rgba(255, 125, 0, 0.34)"></path>
            <path d="M507.5 6.07 L507.5 68.92" stroke-width="3.75" stroke="rgba(255, 125, 0, 0.34)"></path>
            <path d="M512.5 14.58 L512.5 60.42" stroke-width="3.75" stroke="rgba(255, 125, 0, 0.34)"></path>
            <path d="M517.5 5.08 L517.5 69.92" stroke-width="3.75" stroke="rgba(255, 125, 0, 0.34)"></path>
            <path d="M522.5 7.18 L522.5 67.83" stroke-width="3.75" stroke="rgba(255, 125, 0, 0.34)"></path>
            <path d="M527.5 19.64 L527.5 55.36" stroke-width="3.75" stroke="rgba(255, 125, 0, 0.34)"></path>
            <path d="M532.5 6.09 L532.5 68.91" stroke-width="3.75" stroke="rgba(255, 125, 0, 0.34)"></path>
            <path d="M537.5 7.12 L537.5 67.88" stroke-width="3.75" stroke="rgba(255, 125, 0, 0.34)"></path>
            <path d="M542.5 4.24 L542.5 70.76" stroke-width="3.75" stroke="rgba(255, 125, 0, 0.34)"></path>
            <path d="M547.5 21.83 L547.5 53.17" stroke-width="3.75" stroke="rgba(255, 125, 0, 0.34)"></path>
            <path d="M552.5 33.55 L552.5 41.45" stroke-width="3.75" stroke="rgba(255, 125, 0, 0.34)"></path>
            <path d="M557.5 14.23 L557.5 60.77" stroke-width="3.75" stroke="rgba(255, 125, 0, 0.34)"></path>
            <path d="M562.5 12.05 L562.5 62.95" stroke-width="3.75" stroke="rgba(255, 125, 0, 0.34)"></path>
            <path d="M567.5 12.34 L567.5 62.66" stroke-width="3.75" stroke="rgba(255, 125, 0, 0.34)"></path>
            <path d="M572.5 18.45 L572.5 56.55" stroke-width="3.75" stroke="rgba(255, 125, 0, 0.34)"></path>
            <path d="M577.5 10.5 L577.5 64.5" stroke-width="3.75" stroke="rgba(255, 125, 0, 0.34)"></path>
            <path d="M582.5 8.16 L582.5 66.84" stroke-width="3.75" stroke="rgba(255, 125, 0, 0.34)"></path>
            <path d="M587.5 9.52 L587.5 65.48" stroke-width="3.75" stroke="rgba(255, 125, 0, 0.34)"></path>
            <path d="M592.5 33.16 L592.5 41.84" stroke-width="3.75" stroke="rgba(255, 125, 0, 0.34)"></path>
            <path d="M597.5 28.82 L597.5 46.18" stroke-width="3.75" stroke="rgba(255, 125, 0, 0.34)"></path>
            <path d="M602.5 23.23 L602.5 51.77" stroke-width="3.75" stroke="rgba(255, 125, 0, 0.34)"></path>
            <path d="M607.5 30.13 L607.5 44.88" stroke-width="3.75" stroke="rgba(255, 125, 0, 0.34)"></path>
            <path d="M612.5 23.81 L612.5 51.19" stroke-width="3.75" stroke="rgba(255, 125, 0, 0.34)"></path>
            <path d="M617.5 16.04 L617.5 58.97" stroke-width="3.75" stroke="rgba(255, 125, 0, 0.34)"></path>
            <path d="M622.5 5.01 L622.5 69.99" stroke-width="3.75" stroke="rgba(255, 125, 0, 0.34)"></path>
            <path d="M627.5 4.62 L627.5 70.38" stroke-width="3.75" stroke="rgba(255, 125, 0, 0.34)"></path>
            <path d="M632.5 3.61 L632.5 71.39" stroke-width="3.75" stroke="rgba(255, 125, 0, 0.34)"></path>
            <path d="M637.5 18.52 L637.5 56.48" stroke-width="3.75" stroke="rgba(255, 125, 0, 0.34)"></path>
            <path d="M642.5 12.96 L642.5 62.04" stroke-width="3.75" stroke="rgba(255, 125, 0, 0.34)"></path>
            <path d="M647.5 22.31 L647.5 52.69" stroke-width="3.75" stroke="rgba(255, 125, 0, 0.34)"></path>
            <path d="M652.5 28.62 L652.5 46.38" stroke-width="3.75" stroke="rgba(255, 125, 0, 0.34)"></path>
            <path d="M657.5 18.08 L657.5 56.92" stroke-width="3.75" stroke="rgba(255, 125, 0, 0.34)"></path>
            <path d="M662.5 12.32 L662.5 62.68" stroke-width="3.75" stroke="rgba(255, 125, 0, 0.34)"></path>
            <path d="M667.5 22.71 L667.5 52.28" stroke-width="3.75" stroke="rgba(255, 125, 0, 0.34)"></path>
            <path d="M672.5 27.96 L672.5 47.04" stroke-width="3.75" stroke="rgba(255, 125, 0, 0.34)"></path>
            <path d="M677.5 28.02 L677.5 46.98" stroke-width="3.75" stroke="rgba(255, 125, 0, 0.34)"></path>
            <path d="M682.5 28.23 L682.5 46.77" stroke-width="3.75" stroke="rgba(255, 125, 0, 0.34)"></path>
            <path d="M687.5 21.25 L687.5 53.75" stroke-width="3.75" stroke="rgba(255, 125, 0, 0.34)"></path>
            <path d="M692.5 13.09 L692.5 61.91" stroke-width="3.75" stroke="rgba(255, 125, 0, 0.34)"></path>
            <path d="M697.5 26.09 L697.5 48.91" stroke-width="3.75" stroke="rgba(255, 125, 0, 0.34)"></path>
            <path d="M702.5 9.89 L702.5 65.11" stroke-width="3.75" stroke="rgba(255, 125, 0, 0.34)"></path>
            <path d="M707.5 25.88 L707.5 49.12" stroke-width="3.75" stroke="rgba(255, 125, 0, 0.34)"></path>
            <path d="M712.5 17.39 L712.5 57.61" stroke-width="3.75" stroke="rgba(255, 125, 0, 0.34)"></path>
            <path d="M717.5 16.88 L717.5 58.12" stroke-width="3.75" stroke="rgba(255, 125, 0, 0.34)"></path>
            <path d="M722.5 6.38 L722.5 68.62" stroke-width="3.75" stroke="rgba(255, 125, 0, 0.34)"></path>
            <path d="M727.5 21.23 L727.5 53.77" stroke-width="3.75" stroke="rgba(255, 125, 0, 0.34)"></path>
            <path d="M732.5 11.1 L732.5 63.9" stroke-width="3.75" stroke="rgba(255, 125, 0, 0.34)"></path>
            <path d="M737.5 11.55 L737.5 63.45" stroke-width="3.75" stroke="rgba(255, 125, 0, 0.34)"></path>
            <path d="M742.5 9.31 L742.5 65.69" stroke-width="3.75" stroke="rgba(255, 125, 0, 0.34)"></path>
            <path d="M747.5 22.55 L747.5 52.45" stroke-width="3.75" stroke="rgba(255, 125, 0, 0.34)"></path>
            <path d="M752.5 25.12 L752.5 49.88" stroke-width="3.75" stroke="rgba(255, 125, 0, 0.34)"></path>
            <path d="M757.5 3.45 L757.5 71.55" stroke-width="3.75" stroke="rgba(255, 125, 0, 0.34)"></path>
            <path d="M762.5 16.61 L762.5 58.39" stroke-width="3.75" stroke="rgba(255, 125, 0, 0.34)"></path>
            <path d="M767.5 23.09 L767.5 51.91" stroke-width="3.75" stroke="rgba(255, 125, 0, 0.34)"></path>
            <path d="M772.5 22.72 L772.5 52.28" stroke-width="3.75" stroke="rgba(255, 125, 0, 0.34)"></path>
            <path d="M777.5 19.95 L777.5 55.05" stroke-width="3.75" stroke="rgba(255, 125, 0, 0.34)"></path>
            <path d="M782.5 3.31 L782.5 71.69" stroke-width="3.75" stroke="rgba(255, 125, 0, 0.34)"></path>
            <path d="M787.5 8.7 L787.5 66.3" stroke-width="3.75" stroke="rgba(255, 125, 0, 0.34)"></path>
            <path d="M792.5 11.11 L792.5 63.89" stroke-width="3.75" stroke="rgba(255, 125, 0, 0.34)"></path>
            <path d="M797.5 12.39 L797.5 62.61" stroke-width="3.75" stroke="rgba(255, 125, 0, 0.34)"></path>
            <path d="M802.5 19.79 L802.5 55.21" stroke-width="3.75" stroke="rgba(255, 125, 0, 0.34)"></path>
            <path d="M807.5 8.2 L807.5 66.8" stroke-width="3.75" stroke="rgba(255, 125, 0, 0.34)"></path>
            <path d="M812.5 13.43 L812.5 61.57" stroke-width="3.75" stroke="rgba(255, 125, 0, 0.34)"></path>
            <path d="M817.5 31.3 L817.5 43.7" stroke-width="3.75" stroke="rgba(255, 125, 0, 0.34)"></path>
            <path d="M822.5 32.47 L822.5 42.53" stroke-width="3.75" stroke="rgba(255, 125, 0, 0.34)"></path>
            <path d="M827.5 32.47 L827.5 42.53" stroke-width="3.75" stroke="rgba(255, 125, 0, 0.34)"></path>
            <path d="M832.5 25.12 L832.5 49.88" stroke-width="3.75" stroke="rgba(255, 125, 0, 0.34)"></path>
            <path d="M837.5 19.69 L837.5 55.31" stroke-width="3.75" stroke="rgba(255, 125, 0, 0.34)"></path>
            <path d="M842.5 22.06 L842.5 52.94" stroke-width="3.75" stroke="rgba(255, 125, 0, 0.34)"></path>
            <path d="M847.5 18.45 L847.5 56.55" stroke-width="3.75" stroke="rgba(255, 125, 0, 0.34)"></path>
            <path d="M852.5 15.68 L852.5 59.32" stroke-width="3.75" stroke="rgba(255, 125, 0, 0.34)"></path>
            <path d="M857.5 24.54 L857.5 50.47" stroke-width="3.75" stroke="rgba(255, 125, 0, 0.34)"></path>
            <path d="M862.5 4.27 L862.5 70.73" stroke-width="3.75" stroke="rgba(255, 125, 0, 0.34)"></path>
            <path d="M867.5 7.85 L867.5 67.15" stroke-width="3.75" stroke="rgba(255, 125, 0, 0.34)"></path>
            <path d="M872.5 10.45 L872.5 64.55" stroke-width="3.75" stroke="rgba(255, 125, 0, 0.34)"></path>
            <path d="M877.5 7.57 L877.5 67.44" stroke-width="3.75" stroke="rgba(255, 125, 0, 0.34)"></path>
            <path d="M882.5 24.04 L882.5 50.96" stroke-width="3.75" stroke="rgba(255, 125, 0, 0.34)"></path>
            <path d="M887.5 27.07 L887.5 47.93" stroke-width="3.75" stroke="rgba(255, 125, 0, 0.34)"></path>
            <path d="M892.5 8.29 L892.5 66.71" stroke-width="3.75" stroke="rgba(255, 125, 0, 0.34)"></path>
            <path d="M897.5 5.44 L897.5 69.56" stroke-width="3.75" stroke="rgba(255, 125, 0, 0.34)"></path>
            <path d="M902.5 4.58 L902.5 70.42" stroke-width="3.75" stroke="rgba(255, 125, 0, 0.34)"></path>
            <path d="M907.5 17.68 L907.5 57.33" stroke-width="3.75" stroke="rgba(255, 125, 0, 0.34)"></path>
            <path d="M912.5 27.41 L912.5 47.59" stroke-width="3.75" stroke="rgba(255, 125, 0, 0.34)"></path>
            <path d="M917.5 30.62 L917.5 44.38" stroke-width="3.75" stroke="rgba(255, 125, 0, 0.34)"></path>
            <path d="M922.5 13.52 L922.5 61.48" stroke-width="3.75" stroke="rgba(255, 125, 0, 0.34)"></path>
            <path d="M927.5 5.34 L927.5 69.66" stroke-width="3.75" stroke="rgba(255, 125, 0, 0.34)"></path>
            <path d="M932.5 15.13 L932.5 59.88" stroke-width="3.75" stroke="rgba(255, 125, 0, 0.34)"></path>
            <path d="M937.5 15.29 L937.5 59.72" stroke-width="3.75" stroke="rgba(255, 125, 0, 0.34)"></path>
            <path d="M942.5 13.02 L942.5 61.98" stroke-width="3.75" stroke="rgba(255, 125, 0, 0.34)"></path>
            <path d="M947.5 12.38 L947.5 62.63" stroke-width="3.75" stroke="rgba(255, 125, 0, 0.34)"></path>
            <path d="M952.5 12.76 L952.5 62.24" stroke-width="3.75" stroke="rgba(255, 125, 0, 0.34)"></path>
            <path d="M957.5 3.83 L957.5 71.17" stroke-width="3.75" stroke="rgba(255, 125, 0, 0.34)"></path>
            <path d="M962.5 14.57 L962.5 60.44" stroke-width="3.75" stroke="rgba(255, 125, 0, 0.34)"></path>
            <path d="M967.5 30.42 L967.5 44.58" stroke-width="3.75" stroke="rgba(255, 125, 0, 0.34)"></path>
            <path d="M972.5 27.74 L972.5 47.26" stroke-width="3.75" stroke="rgba(255, 125, 0, 0.34)"></path>
            <path d="M977.5 18.38 L977.5 56.62" stroke-width="3.75" stroke="rgba(255, 125, 0, 0.34)"></path>
            <path d="M982.5 14.95 L982.5 60.05" stroke-width="3.75" stroke="rgba(255, 125, 0, 0.34)"></path>
            <path d="M987.5 22.49 L987.5 52.51" stroke-width="3.75" stroke="rgba(255, 125, 0, 0.34)"></path>
            <path d="M992.5 22.91 L992.5 52.09" stroke-width="3.75" stroke="rgba(255, 125, 0, 0.34)"></path>
            <path d="M997.5 25.49 L997.5 49.51" stroke-width="3.75" stroke="rgba(255, 125, 0, 0.34)"></path>
            <path d="M1002.5 29.49 L1002.5 45.51" stroke-width="3.75" stroke="rgba(255, 125, 0, 0.34)"></path>
            <path d="M1007.5 30.02 L1007.5 44.98" stroke-width="3.75" stroke="rgba(255, 125, 0, 0.34)"></path>
            <path d="M1012.5 6.18 L1012.5 68.81" stroke-width="3.75" stroke="rgba(255, 125, 0, 0.34)"></path>
            <path d="M1017.5 32.55 L1017.5 42.45" stroke-width="3.75" stroke="rgba(255, 125, 0, 0.34)"></path>
            <path d="M1022.5 26.01 L1022.5 48.99" stroke-width="3.75" stroke="rgba(255, 125, 0, 0.34)"></path>
            <path d="M1027.5 24.98 L1027.5 50.02" stroke-width="3.75" stroke="rgba(255, 125, 0, 0.34)"></path>
            <path d="M1032.5 24.39 L1032.5 50.61" stroke-width="3.75" stroke="rgba(255, 125, 0, 0.34)"></path>
            <path d="M1037.5 3.38 L1037.5 71.62" stroke-width="3.75" stroke="rgba(255, 125, 0, 0.34)"></path>
            <path d="M1042.5 25.87 L1042.5 49.13" stroke-width="3.75" stroke="rgba(255, 125, 0, 0.34)"></path>
            <path d="M1047.5 5.41 L1047.5 69.59" stroke-width="3.75" stroke="rgba(255, 125, 0, 0.34)"></path>
            <path d="M1052.5 9.52 L1052.5 65.47" stroke-width="3.75" stroke="rgba(255, 125, 0, 0.34)"></path>
            <path d="M1057.5 15.5 L1057.5 59.5" stroke-width="3.75" stroke="rgba(255, 125, 0, 0.34)"></path>
            <path d="M1062.5 9.2 L1062.5 65.81" stroke-width="3.75" stroke="rgba(255, 125, 0, 0.34)"></path>
            <path d="M1067.5 21.79 L1067.5 53.22" stroke-width="3.75" stroke="rgba(255, 125, 0, 0.34)"></path>
            <path d="M1072.5 5.85 L1072.5 69.15" stroke-width="3.75" stroke="rgba(255, 125, 0, 0.34)"></path>
            <path d="M1077.5 6.8 L1077.5 68.2" stroke-width="3.75" stroke="rgba(255, 125, 0, 0.34)"></path>
            <path d="M1082.5 31.16 L1082.5 43.84" stroke-width="3.75" stroke="rgba(255, 125, 0, 0.34)"></path>
            <path d="M1087.5 11.57 L1087.5 63.44" stroke-width="3.75" stroke="rgba(255, 125, 0, 0.34)"></path>
            <path d="M1092.5 6.09 L1092.5 68.91" stroke-width="3.75" stroke="rgba(255, 125, 0, 0.34)"></path>
            <path d="M1097.5 24.41 L1097.5 50.59" stroke-width="3.75" stroke="rgba(255, 125, 0, 0.34)"></path>
            <path d="M1102.5 21.36 L1102.5 53.64" stroke-width="3.75" stroke="rgba(255, 125, 0, 0.34)"></path>
            <path d="M1107.5 13.54 L1107.5 61.46" stroke-width="3.75" stroke="rgba(255, 125, 0, 0.34)"></path>
            <path d="M1112.5 12.75 L1112.5 62.25" stroke-width="3.75" stroke="rgba(255, 125, 0, 0.34)"></path>
            <path d="M1117.5 23.4 L1117.5 51.6" stroke-width="3.75" stroke="rgba(255, 125, 0, 0.34)"></path>
            <path d="M1122.5 19.81 L1122.5 55.19" stroke-width="3.75" stroke="rgba(255, 125, 0, 0.34)"></path>
            <path d="M1127.5 4.37 L1127.5 70.63" stroke-width="3.75" stroke="rgba(255, 125, 0, 0.34)"></path>
            <path d="M1132.5 16.63 L1132.5 58.37" stroke-width="3.75" stroke="rgba(255, 125, 0, 0.34)"></path>
            <path d="M1137.5 7.7 L1137.5 67.31" stroke-width="3.75" stroke="rgba(255, 125, 0, 0.34)"></path>
            <path d="M1142.5 28.7 L1142.5 46.3" stroke-width="3.75" stroke="rgba(255, 125, 0, 0.34)"></path>
            <path d="M1147.5 27.31 L1147.5 47.69" stroke-width="3.75" stroke="rgba(255, 125, 0, 0.34)"></path>
            <path d="M1152.5 2.52 L1152.5 72.48" stroke-width="3.75" stroke="rgba(255, 125, 0, 0.34)"></path>
            <path d="M1157.5 21.91 L1157.5 53.09" stroke-width="3.75" stroke="rgba(255, 125, 0, 0.34)"></path>
            <path d="M1162.5 22.14 L1162.5 52.86" stroke-width="3.75" stroke="rgba(255, 125, 0, 0.34)"></path>
            <path d="M1167.5 31.66 L1167.5 43.34" stroke-width="3.75" stroke="rgba(255, 125, 0, 0.34)"></path>
            <path d="M1172.5 21.15 L1172.5 53.85" stroke-width="3.75" stroke="rgba(255, 125, 0, 0.34)"></path>
            <path d="M1177.5 19.74 L1177.5 55.26" stroke-width="3.75" stroke="rgba(255, 125, 0, 0.34)"></path>
            <path d="M1182.5 31.5 L1182.5 43.5" stroke-width="3.75" stroke="rgba(255, 125, 0, 0.34)"></path>
            <path d="M1187.5 25.45 L1187.5 49.55" stroke-width="3.75" stroke="rgba(255, 125, 0, 0.34)"></path>
            <path d="M1192.5 20.66 L1192.5 54.34" stroke-width="3.75" stroke="rgba(255, 125, 0, 0.34)"></path>
            <path d="M1197.5 6.79 L1197.5 68.22" stroke-width="3.75" stroke="rgba(255, 125, 0, 0.34)"></path>
            <path d="M1202.5 26.8 L1202.5 48.2" stroke-width="3.75" stroke="rgba(255, 125, 0, 0.34)"></path>
            <path d="M1207.5 12.64 L1207.5 62.36" stroke-width="3.75" stroke="rgba(255, 125, 0, 0.34)"></path>
            <path d="M1212.5 6.47 L1212.5 68.53" stroke-width="3.75" stroke="rgba(255, 125, 0, 0.34)"></path>
            <path d="M1217.5 15.73 L1217.5 59.27" stroke-width="3.75" stroke="rgba(255, 125, 0, 0.34)"></path>
            <path d="M1222.5 26.37 L1222.5 48.63" stroke-width="3.75" stroke="rgba(255, 125, 0, 0.34)"></path>
            <path d="M1227.5 15.8 L1227.5 59.2" stroke-width="3.75" stroke="rgba(255, 125, 0, 0.34)"></path>
            <path d="M1232.5 10.43 L1232.5 64.58" stroke-width="3.75" stroke="rgba(255, 125, 0, 0.34)"></path>
            <path d="M1237.5 31.74 L1237.5 43.26" stroke-width="3.75" stroke="rgba(255, 125, 0, 0.34)"></path>
            <path d="M1242.5 24.06 L1242.5 50.94" stroke-width="3.75" stroke="rgba(255, 125, 0, 0.34)"></path>
            <path d="M1247.5 21.88 L1247.5 53.12" stroke-width="3.75" stroke="rgba(255, 125, 0, 0.34)"></path>
            <path d="M1252.5 29.77 L1252.5 45.23" stroke-width="3.75" stroke="rgba(255, 125, 0, 0.34)"></path>
            <path d="M1257.5 33.42 L1257.5 41.58" stroke-width="3.75" stroke="rgba(255, 125, 0, 0.34)"></path>
            <path d="M1262.5 21.14 L1262.5 53.86" stroke-width="3.75" stroke="rgba(255, 125, 0, 0.34)"></path>
            <path d="M1267.5 19.07 L1267.5 55.94" stroke-width="3.75" stroke="rgba(255, 125, 0, 0.34)"></path>
            <path d="M1272.5 12.96 L1272.5 62.04" stroke-width="3.75" stroke="rgba(255, 125, 0, 0.34)"></path>
            <path d="M1277.5 31.12 L1277.5 43.88" stroke-width="3.75" stroke="rgba(255, 125, 0, 0.34)"></path>
            <path d="M1282.5 17.39 L1282.5 57.61" stroke-width="3.75" stroke="rgba(255, 125, 0, 0.34)"></path>
            <path d="M1287.5 11.52 L1287.5 63.48" stroke-width="3.75" stroke="rgba(255, 125, 0, 0.34)"></path>
            <path d="M1292.5 27.88 L1292.5 47.12" stroke-width="3.75" stroke="rgba(255, 125, 0, 0.34)"></path>
            <path d="M1297.5 22.19 L1297.5 52.81" stroke-width="3.75" stroke="rgba(255, 125, 0, 0.34)"></path>
            <path d="M1302.5 24.99 L1302.5 50.01" stroke-width="3.75" stroke="rgba(255, 125, 0, 0.34)"></path>
            <path d="M1307.5 22.29 L1307.5 52.71" stroke-width="3.75" stroke="rgba(255, 125, 0, 0.34)"></path>
            <path d="M1312.5 6.3 L1312.5 68.69" stroke-width="3.75" stroke="rgba(255, 125, 0, 0.34)"></path>
            <path d="M1317.5 14.98 L1317.5 60.02" stroke-width="3.75" stroke="rgba(255, 125, 0, 0.34)"></path>
            <path d="M1322.5 20.05 L1322.5 54.95" stroke-width="3.75" stroke="rgba(255, 125, 0, 0.34)"></path>
            <path d="M1327.5 26.65 L1327.5 48.35" stroke-width="3.75" stroke="rgba(255, 125, 0, 0.34)"></path>
            <path d="M1332.5 8.06 L1332.5 66.94" stroke-width="3.75" stroke="rgba(255, 125, 0, 0.34)"></path>
            <path d="M1337.5 21.95 L1337.5 53.05" stroke-width="3.75" stroke="rgba(255, 125, 0, 0.34)"></path>
            <path d="M1342.5 22.38 L1342.5 52.62" stroke-width="3.75" stroke="rgba(255, 125, 0, 0.34)"></path>
            <path d="M1347.5 2.92 L1347.5 72.08" stroke-width="3.75" stroke="rgba(255, 125, 0, 0.34)"></path>
            <path d="M1352.5 22.69 L1352.5 52.31" stroke-width="3.75" stroke="rgba(255, 125, 0, 0.34)"></path>
            <path d="M1357.5 28.92 L1357.5 46.08" stroke-width="3.75" stroke="rgba(255, 125, 0, 0.34)"></path>
            <path d="M1362.5 25.13 L1362.5 49.88" stroke-width="3.75" stroke="rgba(255, 125, 0, 0.34)"></path>
            <path d="M1367.5 31.78 L1367.5 43.22" stroke-width="3.75" stroke="rgba(255, 125, 0, 0.34)"></path>
            <path d="M1372.5 7.8 L1372.5 67.19" stroke-width="3.75" stroke="rgba(255, 125, 0, 0.34)"></path>
            <path d="M1377.5 18.2 L1377.5 56.8" stroke-width="3.75" stroke="rgba(255, 125, 0, 0.34)"></path>
            <path d="M1382.5 28.81 L1382.5 46.19" stroke-width="3.75" stroke="rgba(255, 125, 0, 0.34)"></path>
            <path d="M1387.5 7.8 L1387.5 67.19" stroke-width="3.75" stroke="rgba(255, 125, 0, 0.34)"></path>
            <path d="M1392.5 26.52 L1392.5 48.48" stroke-width="3.75" stroke="rgba(255, 125, 0, 0.34)"></path>
            <path d="M1397.5 20.66 L1397.5 54.34" stroke-width="3.75" stroke="rgba(255, 125, 0, 0.34)"></path>
            <path d="M1402.5 10.24 L1402.5 64.76" stroke-width="3.75" stroke="rgba(255, 125, 0, 0.34)"></path>
            <path d="M1407.5 32.62 L1407.5 42.38" stroke-width="3.75" stroke="rgba(255, 125, 0, 0.34)"></path>
            <path d="M1412.5 19.64 L1412.5 55.36" stroke-width="3.75" stroke="rgba(255, 125, 0, 0.34)"></path>
            <path d="M1417.5 13.1 L1417.5 61.9" stroke-width="3.75" stroke="rgba(255, 125, 0, 0.34)"></path>
            <path d="M1422.5 24.2 L1422.5 50.8" stroke-width="3.75" stroke="rgba(255, 125, 0, 0.34)"></path>
            <path d="M1427.5 11.3 L1427.5 63.7" stroke-width="3.75" stroke="rgba(255, 125, 0, 0.34)"></path>
            <path d="M1432.5 28.52 L1432.5 46.48" stroke-width="3.75" stroke="rgba(255, 125, 0, 0.34)"></path>
            <path d="M1437.5 15.2 L1437.5 59.8" stroke-width="3.75" stroke="rgba(255, 125, 0, 0.34)"></path>
        </g>
    </g>
    <defs>
        <mask id="SvgjsMask1000">
            <rect width="1440" height="75" fill="#ffffff"></rect>
        </mask>
    </defs>
</svg>