<svg xmlns="http://www.w3.org/2000/svg" version="1.1" xmlns:xlink="http://www.w3.org/1999/xlink" xmlns:svgjs="http://svgjs.com/svgjs" width="1440" height="560" preserveAspectRatio="none" viewBox="0 0 1440 560">
    <g mask="url(&quot;#SvgjsMask1188&quot;)" fill="none">
        <g transform="translate(0, 0)" stroke-linecap="round">
            <path d="M58.5 181.13 L58.5 378.88" stroke-width="15.75" stroke="rgba(255, 125, 0, 1)"></path>
            <path d="M79.5 219.85 L79.5 340.14" stroke-width="15.75" stroke="rgba(255, 125, 0, 1)"></path>
            <path d="M100.5 247.44 L100.5 312.56" stroke-width="15.75" stroke="rgba(255, 125, 0, 1)"></path>
            <path d="M121.5 172.26 L121.5 387.74" stroke-width="15.75" stroke="rgba(255, 125, 0, 1)"></path>
            <path d="M142.5 185.39 L142.5 374.61" stroke-width="15.75" stroke="rgba(255, 125, 0, 1)"></path>
            <path d="M163.5 89.72 L163.5 470.27" stroke-width="15.75" stroke="rgba(255, 125, 0, 1)"></path>
            <path d="M184.5 153.28 L184.5 406.73" stroke-width="15.75" stroke="rgba(255, 125, 0, 1)"></path>
            <path d="M205.5 199.42 L205.5 360.58" stroke-width="15.75" stroke="rgba(255, 125, 0, 1)"></path>
            <path d="M226.5 243.5 L226.5 316.5" stroke-width="15.75" stroke="rgba(255, 125, 0, 1)"></path>
            <path d="M247.5 167.49 L247.5 392.51" stroke-width="15.75" stroke="rgba(255, 125, 0, 1)"></path>
            <path d="M268.5 163.33 L268.5 396.67" stroke-width="15.75" stroke="rgba(255, 125, 0, 1)"></path>
            <path d="M289.5 252.16 L289.5 307.84" stroke-width="15.75" stroke="rgba(255, 125, 0, 1)"></path>
            <path d="M310.5 181.53 L310.5 378.47" stroke-width="15.75" stroke="rgba(255, 125, 0, 1)"></path>
            <path d="M331.5 99.34 L331.5 460.65" stroke-width="15.75" stroke="rgba(255, 125, 0, 1)"></path>
            <path d="M352.5 178.7 L352.5 381.3" stroke-width="15.75" stroke="rgba(255, 125, 0, 1)"></path>
            <path d="M373.5 231.36 L373.5 328.64" stroke-width="15.75" stroke="rgba(255, 125, 0, 1)"></path>
            <path d="M394.5 77.37 L394.5 482.63" stroke-width="15.75" stroke="rgba(255, 125, 0, 1)"></path>
            <path d="M415.5 174.42 L415.5 385.58" stroke-width="15.75" stroke="rgba(255, 125, 0, 1)"></path>
            <path d="M436.5 190.8 L436.5 369.2" stroke-width="15.75" stroke="rgba(255, 125, 0, 1)"></path>
            <path d="M457.5 192.84 L457.5 367.15" stroke-width="15.75" stroke="rgba(255, 125, 0, 1)"></path>
            <path d="M478.5 162.32 L478.5 397.68" stroke-width="15.75" stroke="rgba(255, 125, 0, 1)"></path>
            <path d="M499.5 200.06 L499.5 359.94" stroke-width="15.75" stroke="rgba(255, 125, 0, 1)"></path>
            <path d="M520.5 209.32 L520.5 350.68" stroke-width="15.75" stroke="rgba(255, 125, 0, 1)"></path>
            <path d="M541.5 155.36 L541.5 404.64" stroke-width="15.75" stroke="rgba(255, 125, 0, 1)"></path>
            <path d="M562.5 231.07 L562.5 328.93" stroke-width="15.75" stroke="rgba(255, 125, 0, 1)"></path>
            <path d="M583.5 138.04 L583.5 421.96" stroke-width="15.75" stroke="rgba(255, 125, 0, 1)"></path>
            <path d="M604.5 63.97 L604.5 496.02" stroke-width="15.75" stroke="rgba(255, 125, 0, 1)"></path>
            <path d="M625.5 191.09 L625.5 368.91" stroke-width="15.75" stroke="rgba(255, 125, 0, 1)"></path>
            <path d="M646.5 240.32 L646.5 319.68" stroke-width="15.75" stroke="rgba(255, 125, 0, 1)"></path>
            <path d="M667.5 195.95 L667.5 364.05" stroke-width="15.75" stroke="rgba(255, 125, 0, 1)"></path>
            <path d="M688.5 215 L688.5 345" stroke-width="15.75" stroke="rgba(255, 125, 0, 1)"></path>
            <path d="M709.5 179.61 L709.5 380.39" stroke-width="15.75" stroke="rgba(255, 125, 0, 1)"></path>
            <path d="M730.5 212.92 L730.5 347.08" stroke-width="15.75" stroke="rgba(255, 125, 0, 1)"></path>
            <path d="M751.5 181.63 L751.5 378.37" stroke-width="15.75" stroke="rgba(255, 125, 0, 1)"></path>
            <path d="M772.5 41.42 L772.5 518.58" stroke-width="15.75" stroke="rgba(255, 125, 0, 1)"></path>
            <path d="M793.5 206.36 L793.5 353.64" stroke-width="15.75" stroke="rgba(255, 125, 0, 1)"></path>
            <path d="M814.5 119.87 L814.5 440.13" stroke-width="15.75" stroke="rgba(255, 125, 0, 1)"></path>
            <path d="M835.5 248.26 L835.5 311.74" stroke-width="15.75" stroke="rgba(255, 125, 0, 1)"></path>
            <path d="M856.5 239.64 L856.5 320.36" stroke-width="15.75" stroke="rgba(255, 125, 0, 1)"></path>
            <path d="M877.5 171.52 L877.5 388.48" stroke-width="15.75" stroke="rgba(255, 125, 0, 1)"></path>
            <path d="M898.5 124.38 L898.5 435.62" stroke-width="15.75" stroke="rgba(255, 125, 0, 1)"></path>
            <path d="M919.5 44.07 L919.5 515.92" stroke-width="15.75" stroke="rgba(255, 125, 0, 1)"></path>
            <path d="M940.5 219.06 L940.5 340.94" stroke-width="15.75" stroke="rgba(255, 125, 0, 1)"></path>
            <path d="M961.5 177.62 L961.5 382.38" stroke-width="15.75" stroke="rgba(255, 125, 0, 1)"></path>
            <path d="M982.5 70.25 L982.5 489.75" stroke-width="15.75" stroke="rgba(255, 125, 0, 1)"></path>
            <path d="M1003.5 78.96 L1003.5 481.04" stroke-width="15.75" stroke="rgba(255, 125, 0, 1)"></path>
            <path d="M1024.5 173.14 L1024.5 386.86" stroke-width="15.75" stroke="rgba(255, 125, 0, 1)"></path>
            <path d="M1045.5 91.59 L1045.5 468.41" stroke-width="15.75" stroke="rgba(255, 125, 0, 1)"></path>
            <path d="M1066.5 183.33 L1066.5 376.67" stroke-width="15.75" stroke="rgba(255, 125, 0, 1)"></path>
            <path d="M1087.5 185.63 L1087.5 374.38" stroke-width="15.75" stroke="rgba(255, 125, 0, 1)"></path>
            <path d="M1108.5 230.41 L1108.5 329.6" stroke-width="15.75" stroke="rgba(255, 125, 0, 1)"></path>
            <path d="M1129.5 149.01 L1129.5 410.99" stroke-width="15.75" stroke="rgba(255, 125, 0, 1)"></path>
            <path d="M1150.5 235.13 L1150.5 324.88" stroke-width="15.75" stroke="rgba(255, 125, 0, 1)"></path>
            <path d="M1171.5 194.96 L1171.5 365.04" stroke-width="15.75" stroke="rgba(255, 125, 0, 1)"></path>
            <path d="M1192.5 134.49 L1192.5 425.51" stroke-width="15.75" stroke="rgba(255, 125, 0, 1)"></path>
            <path d="M1213.5 93.43 L1213.5 466.57" stroke-width="15.75" stroke="rgba(255, 125, 0, 1)"></path>
            <path d="M1234.5 122.75 L1234.5 437.25" stroke-width="15.75" stroke="rgba(255, 125, 0, 1)"></path>
            <path d="M1255.5 117.04 L1255.5 442.96" stroke-width="15.75" stroke="rgba(255, 125, 0, 1)"></path>
            <path d="M1276.5 92.16 L1276.5 467.84" stroke-width="15.75" stroke="rgba(255, 125, 0, 1)"></path>
            <path d="M1297.5 158.5 L1297.5 401.5" stroke-width="15.75" stroke="rgba(255, 125, 0, 1)"></path>
            <path d="M1318.5 31.94 L1318.5 528.07" stroke-width="15.75" stroke="rgba(255, 125, 0, 1)"></path>
            <path d="M1339.5 79.86 L1339.5 480.14" stroke-width="15.75" stroke="rgba(255, 125, 0, 1)"></path>
            <path d="M1360.5 99.31 L1360.5 460.69" stroke-width="15.75" stroke="rgba(255, 125, 0, 1)"></path>
            <path d="M1381.5 123 L1381.5 437" stroke-width="15.75" stroke="rgba(255, 125, 0, 1)"></path>
        </g>
    </g>
    <defs>
        <mask id="SvgjsMask1188">
            <rect width="1440" height="560" fill="#ffffff"></rect>
        </mask>
    </defs>
</svg>