<svg xmlns="http://www.w3.org/2000/svg" version="1.1" xmlns:xlink="http://www.w3.org/1999/xlink" xmlns:svgjs="http://svgjs.com/svgjs" width="1440" height="560" preserveAspectRatio="none" viewBox="0 0 1440 560">
    <g mask="url(&quot;#SvgjsMask2478&quot;)" fill="none">
        <g transform="translate(0, 0)">
            <use xlink:href="#SvgjsPath2479" x="16.5" y="280" fill="rgba(174, 195, 176, 1)"></use>
            <use xlink:href="#SvgjsPath2480" x="37.5" y="280" fill="rgba(89, 131, 146, 1)"></use>
            <use xlink:href="#SvgjsPath2481" x="58.5" y="280" fill="rgba(174, 195, 176, 1)"></use>
            <use xlink:href="#SvgjsPath2482" x="79.5" y="280" fill="rgba(174, 195, 176, 1)"></use>
            <use xlink:href="#SvgjsPath2483" x="100.5" y="280" fill="rgba(89, 131, 146, 1)"></use>
            <use xlink:href="#SvgjsPath2483" x="121.5" y="280" fill="rgba(89, 131, 146, 1)"></use>
            <use xlink:href="#SvgjsPath2484" x="142.5" y="280" fill="rgba(89, 131, 146, 1)"></use>
            <use xlink:href="#SvgjsPath2480" x="163.5" y="280" fill="rgba(174, 195, 176, 1)"></use>
            <use xlink:href="#SvgjsPath2485" x="184.5" y="280" fill="rgba(89, 131, 146, 1)"></use>
            <use xlink:href="#SvgjsPath2484" x="205.5" y="280" fill="rgba(89, 131, 146, 1)"></use>
            <use xlink:href="#SvgjsPath2486" x="226.5" y="280" fill="rgba(89, 131, 146, 1)"></use>
            <use xlink:href="#SvgjsPath2482" x="247.5" y="280" fill="rgba(174, 195, 176, 1)"></use>
            <use xlink:href="#SvgjsPath2481" x="268.5" y="280" fill="rgba(89, 131, 146, 1)"></use>
            <use xlink:href="#SvgjsPath2487" x="289.5" y="280" fill="rgba(174, 195, 176, 1)"></use>
            <use xlink:href="#SvgjsPath2485" x="310.5" y="280" fill="rgba(89, 131, 146, 1)"></use>
            <use xlink:href="#SvgjsPath2481" x="331.5" y="280" fill="rgba(89, 131, 146, 1)"></use>
            <use xlink:href="#SvgjsPath2480" x="352.5" y="280" fill="rgba(174, 195, 176, 1)"></use>
            <use xlink:href="#SvgjsPath2483" x="373.5" y="280" fill="rgba(174, 195, 176, 1)"></use>
            <use xlink:href="#SvgjsPath2488" x="394.5" y="280" fill="rgba(174, 195, 176, 1)"></use>
            <use xlink:href="#SvgjsPath2479" x="415.5" y="280" fill="rgba(89, 131, 146, 1)"></use>
            <use xlink:href="#SvgjsPath2483" x="436.5" y="280" fill="rgba(89, 131, 146, 1)"></use>
            <use xlink:href="#SvgjsPath2480" x="457.5" y="280" fill="rgba(174, 195, 176, 1)"></use>
            <use xlink:href="#SvgjsPath2486" x="478.5" y="280" fill="rgba(89, 131, 146, 1)"></use>
            <use xlink:href="#SvgjsPath2481" x="499.5" y="280" fill="rgba(174, 195, 176, 1)"></use>
            <use xlink:href="#SvgjsPath2489" x="520.5" y="280" fill="rgba(89, 131, 146, 1)"></use>
            <use xlink:href="#SvgjsPath2485" x="541.5" y="280" fill="rgba(89, 131, 146, 1)"></use>
            <use xlink:href="#SvgjsPath2488" x="562.5" y="280" fill="rgba(174, 195, 176, 1)"></use>
            <use xlink:href="#SvgjsPath2485" x="583.5" y="280" fill="rgba(89, 131, 146, 1)"></use>
            <use xlink:href="#SvgjsPath2483" x="604.5" y="280" fill="rgba(89, 131, 146, 1)"></use>
            <use xlink:href="#SvgjsPath2479" x="625.5" y="280" fill="rgba(89, 131, 146, 1)"></use>
            <use xlink:href="#SvgjsPath2487" x="646.5" y="280" fill="rgba(174, 195, 176, 1)"></use>
            <use xlink:href="#SvgjsPath2480" x="667.5" y="280" fill="rgba(89, 131, 146, 1)"></use>
            <use xlink:href="#SvgjsPath2485" x="688.5" y="280" fill="rgba(89, 131, 146, 1)"></use>
            <use xlink:href="#SvgjsPath2484" x="709.5" y="280" fill="rgba(89, 131, 146, 1)"></use>
            <use xlink:href="#SvgjsPath2487" x="730.5" y="280" fill="rgba(174, 195, 176, 1)"></use>
            <use xlink:href="#SvgjsPath2487" x="751.5" y="280" fill="rgba(174, 195, 176, 1)"></use>
            <use xlink:href="#SvgjsPath2486" x="772.5" y="280" fill="rgba(89, 131, 146, 1)"></use>
            <use xlink:href="#SvgjsPath2490" x="793.5" y="280" fill="rgba(89, 131, 146, 1)"></use>
            <use xlink:href="#SvgjsPath2489" x="814.5" y="280" fill="rgba(89, 131, 146, 1)"></use>
            <use xlink:href="#SvgjsPath2484" x="835.5" y="280" fill="rgba(174, 195, 176, 1)"></use>
            <use xlink:href="#SvgjsPath2479" x="856.5" y="280" fill="rgba(89, 131, 146, 1)"></use>
            <use xlink:href="#SvgjsPath2479" x="877.5" y="280" fill="rgba(89, 131, 146, 1)"></use>
            <use xlink:href="#SvgjsPath2489" x="898.5" y="280" fill="rgba(89, 131, 146, 1)"></use>
            <use xlink:href="#SvgjsPath2485" x="919.5" y="280" fill="rgba(174, 195, 176, 1)"></use>
            <use xlink:href="#SvgjsPath2480" x="940.5" y="280" fill="rgba(89, 131, 146, 1)"></use>
            <use xlink:href="#SvgjsPath2483" x="961.5" y="280" fill="rgba(174, 195, 176, 1)"></use>
            <use xlink:href="#SvgjsPath2483" x="982.5" y="280" fill="rgba(89, 131, 146, 1)"></use>
            <use xlink:href="#SvgjsPath2487" x="1003.5" y="280" fill="rgba(89, 131, 146, 1)"></use>
            <use xlink:href="#SvgjsPath2480" x="1024.5" y="280" fill="rgba(174, 195, 176, 1)"></use>
            <use xlink:href="#SvgjsPath2480" x="1045.5" y="280" fill="rgba(174, 195, 176, 1)"></use>
            <use xlink:href="#SvgjsPath2482" x="1066.5" y="280" fill="rgba(89, 131, 146, 1)"></use>
            <use xlink:href="#SvgjsPath2488" x="1087.5" y="280" fill="rgba(89, 131, 146, 1)"></use>
            <use xlink:href="#SvgjsPath2480" x="1108.5" y="280" fill="rgba(174, 195, 176, 1)"></use>
            <use xlink:href="#SvgjsPath2480" x="1129.5" y="280" fill="rgba(89, 131, 146, 1)"></use>
            <use xlink:href="#SvgjsPath2487" x="1150.5" y="280" fill="rgba(174, 195, 176, 1)"></use>
            <use xlink:href="#SvgjsPath2486" x="1171.5" y="280" fill="rgba(174, 195, 176, 1)"></use>
            <use xlink:href="#SvgjsPath2483" x="1192.5" y="280" fill="rgba(174, 195, 176, 1)"></use>
            <use xlink:href="#SvgjsPath2481" x="1213.5" y="280" fill="rgba(174, 195, 176, 1)"></use>
            <use xlink:href="#SvgjsPath2481" x="1234.5" y="280" fill="rgba(174, 195, 176, 1)"></use>
            <use xlink:href="#SvgjsPath2489" x="1255.5" y="280" fill="rgba(89, 131, 146, 1)"></use>
            <use xlink:href="#SvgjsPath2486" x="1276.5" y="280" fill="rgba(174, 195, 176, 1)"></use>
            <use xlink:href="#SvgjsPath2486" x="1297.5" y="280" fill="rgba(174, 195, 176, 1)"></use>
            <use xlink:href="#SvgjsPath2490" x="1318.5" y="280" fill="rgba(174, 195, 176, 1)"></use>
            <use xlink:href="#SvgjsPath2489" x="1339.5" y="280" fill="rgba(89, 131, 146, 1)"></use>
            <use xlink:href="#SvgjsPath2489" x="1360.5" y="280" fill="rgba(174, 195, 176, 1)"></use>
            <use xlink:href="#SvgjsPath2484" x="1381.5" y="280" fill="rgba(89, 131, 146, 1)"></use>
            <use xlink:href="#SvgjsPath2480" x="1402.5" y="280" fill="rgba(174, 195, 176, 1)"></use>
            <use xlink:href="#SvgjsPath2489" x="1423.5" y="280" fill="rgba(174, 195, 176, 1)"></use>
        </g>
    </g>
    <defs>
        <mask id="SvgjsMask2478">
            <rect width="1440" height="560" fill="#ffffff"></rect>
        </mask>
        <path d="M-8.4 0 a8.4 8.4 0 1 0 16.8 0 a8.4 8.4 0 1 0 -16.8 0zM-8.4 21 a8.4 8.4 0 1 0 16.8 0 a8.4 8.4 0 1 0 -16.8 0zM-8.4 -21 a8.4 8.4 0 1 0 16.8 0 a8.4 8.4 0 1 0 -16.8 0zM-8.4 42 a8.4 8.4 0 1 0 16.8 0 a8.4 8.4 0 1 0 -16.8 0zM-8.4 -42 a8.4 8.4 0 1 0 16.8 0 a8.4 8.4 0 1 0 -16.8 0z" id="SvgjsPath2481"></path>
        <path d="M-8.4 0 a8.4 8.4 0 1 0 16.8 0 a8.4 8.4 0 1 0 -16.8 0zM-8.4 21 a8.4 8.4 0 1 0 16.8 0 a8.4 8.4 0 1 0 -16.8 0zM-8.4 -21 a8.4 8.4 0 1 0 16.8 0 a8.4 8.4 0 1 0 -16.8 0zM-8.4 42 a8.4 8.4 0 1 0 16.8 0 a8.4 8.4 0 1 0 -16.8 0zM-8.4 -42 a8.4 8.4 0 1 0 16.8 0 a8.4 8.4 0 1 0 -16.8 0zM-8.4 63 a8.4 8.4 0 1 0 16.8 0 a8.4 8.4 0 1 0 -16.8 0zM-8.4 -63 a8.4 8.4 0 1 0 16.8 0 a8.4 8.4 0 1 0 -16.8 0z" id="SvgjsPath2484"></path>
        <path d="M-8.4 0 a8.4 8.4 0 1 0 16.8 0 a8.4 8.4 0 1 0 -16.8 0zM-8.4 21 a8.4 8.4 0 1 0 16.8 0 a8.4 8.4 0 1 0 -16.8 0zM-8.4 -21 a8.4 8.4 0 1 0 16.8 0 a8.4 8.4 0 1 0 -16.8 0zM-8.4 42 a8.4 8.4 0 1 0 16.8 0 a8.4 8.4 0 1 0 -16.8 0zM-8.4 -42 a8.4 8.4 0 1 0 16.8 0 a8.4 8.4 0 1 0 -16.8 0zM-8.4 63 a8.4 8.4 0 1 0 16.8 0 a8.4 8.4 0 1 0 -16.8 0zM-8.4 -63 a8.4 8.4 0 1 0 16.8 0 a8.4 8.4 0 1 0 -16.8 0zM-8.4 84 a8.4 8.4 0 1 0 16.8 0 a8.4 8.4 0 1 0 -16.8 0zM-8.4 -84 a8.4 8.4 0 1 0 16.8 0 a8.4 8.4 0 1 0 -16.8 0z" id="SvgjsPath2485"></path>
        <path d="M-8.4 0 a8.4 8.4 0 1 0 16.8 0 a8.4 8.4 0 1 0 -16.8 0zM-8.4 21 a8.4 8.4 0 1 0 16.8 0 a8.4 8.4 0 1 0 -16.8 0zM-8.4 -21 a8.4 8.4 0 1 0 16.8 0 a8.4 8.4 0 1 0 -16.8 0zM-8.4 42 a8.4 8.4 0 1 0 16.8 0 a8.4 8.4 0 1 0 -16.8 0zM-8.4 -42 a8.4 8.4 0 1 0 16.8 0 a8.4 8.4 0 1 0 -16.8 0zM-8.4 63 a8.4 8.4 0 1 0 16.8 0 a8.4 8.4 0 1 0 -16.8 0zM-8.4 -63 a8.4 8.4 0 1 0 16.8 0 a8.4 8.4 0 1 0 -16.8 0zM-8.4 84 a8.4 8.4 0 1 0 16.8 0 a8.4 8.4 0 1 0 -16.8 0zM-8.4 -84 a8.4 8.4 0 1 0 16.8 0 a8.4 8.4 0 1 0 -16.8 0zM-8.4 105 a8.4 8.4 0 1 0 16.8 0 a8.4 8.4 0 1 0 -16.8 0zM-8.4 -105 a8.4 8.4 0 1 0 16.8 0 a8.4 8.4 0 1 0 -16.8 0z" id="SvgjsPath2480"></path>
        <path d="M-8.4 0 a8.4 8.4 0 1 0 16.8 0 a8.4 8.4 0 1 0 -16.8 0zM-8.4 21 a8.4 8.4 0 1 0 16.8 0 a8.4 8.4 0 1 0 -16.8 0zM-8.4 -21 a8.4 8.4 0 1 0 16.8 0 a8.4 8.4 0 1 0 -16.8 0zM-8.4 42 a8.4 8.4 0 1 0 16.8 0 a8.4 8.4 0 1 0 -16.8 0zM-8.4 -42 a8.4 8.4 0 1 0 16.8 0 a8.4 8.4 0 1 0 -16.8 0zM-8.4 63 a8.4 8.4 0 1 0 16.8 0 a8.4 8.4 0 1 0 -16.8 0zM-8.4 -63 a8.4 8.4 0 1 0 16.8 0 a8.4 8.4 0 1 0 -16.8 0zM-8.4 84 a8.4 8.4 0 1 0 16.8 0 a8.4 8.4 0 1 0 -16.8 0zM-8.4 -84 a8.4 8.4 0 1 0 16.8 0 a8.4 8.4 0 1 0 -16.8 0zM-8.4 105 a8.4 8.4 0 1 0 16.8 0 a8.4 8.4 0 1 0 -16.8 0zM-8.4 -105 a8.4 8.4 0 1 0 16.8 0 a8.4 8.4 0 1 0 -16.8 0zM-8.4 126 a8.4 8.4 0 1 0 16.8 0 a8.4 8.4 0 1 0 -16.8 0zM-8.4 -126 a8.4 8.4 0 1 0 16.8 0 a8.4 8.4 0 1 0 -16.8 0z" id="SvgjsPath2479"></path>
        <path d="M-8.4 0 a8.4 8.4 0 1 0 16.8 0 a8.4 8.4 0 1 0 -16.8 0zM-8.4 21 a8.4 8.4 0 1 0 16.8 0 a8.4 8.4 0 1 0 -16.8 0zM-8.4 -21 a8.4 8.4 0 1 0 16.8 0 a8.4 8.4 0 1 0 -16.8 0zM-8.4 42 a8.4 8.4 0 1 0 16.8 0 a8.4 8.4 0 1 0 -16.8 0zM-8.4 -42 a8.4 8.4 0 1 0 16.8 0 a8.4 8.4 0 1 0 -16.8 0zM-8.4 63 a8.4 8.4 0 1 0 16.8 0 a8.4 8.4 0 1 0 -16.8 0zM-8.4 -63 a8.4 8.4 0 1 0 16.8 0 a8.4 8.4 0 1 0 -16.8 0zM-8.4 84 a8.4 8.4 0 1 0 16.8 0 a8.4 8.4 0 1 0 -16.8 0zM-8.4 -84 a8.4 8.4 0 1 0 16.8 0 a8.4 8.4 0 1 0 -16.8 0zM-8.4 105 a8.4 8.4 0 1 0 16.8 0 a8.4 8.4 0 1 0 -16.8 0zM-8.4 -105 a8.4 8.4 0 1 0 16.8 0 a8.4 8.4 0 1 0 -16.8 0zM-8.4 126 a8.4 8.4 0 1 0 16.8 0 a8.4 8.4 0 1 0 -16.8 0zM-8.4 -126 a8.4 8.4 0 1 0 16.8 0 a8.4 8.4 0 1 0 -16.8 0zM-8.4 147 a8.4 8.4 0 1 0 16.8 0 a8.4 8.4 0 1 0 -16.8 0zM-8.4 -147 a8.4 8.4 0 1 0 16.8 0 a8.4 8.4 0 1 0 -16.8 0z" id="SvgjsPath2489"></path>
        <path d="M-8.4 0 a8.4 8.4 0 1 0 16.8 0 a8.4 8.4 0 1 0 -16.8 0zM-8.4 21 a8.4 8.4 0 1 0 16.8 0 a8.4 8.4 0 1 0 -16.8 0zM-8.4 -21 a8.4 8.4 0 1 0 16.8 0 a8.4 8.4 0 1 0 -16.8 0zM-8.4 42 a8.4 8.4 0 1 0 16.8 0 a8.4 8.4 0 1 0 -16.8 0zM-8.4 -42 a8.4 8.4 0 1 0 16.8 0 a8.4 8.4 0 1 0 -16.8 0zM-8.4 63 a8.4 8.4 0 1 0 16.8 0 a8.4 8.4 0 1 0 -16.8 0zM-8.4 -63 a8.4 8.4 0 1 0 16.8 0 a8.4 8.4 0 1 0 -16.8 0zM-8.4 84 a8.4 8.4 0 1 0 16.8 0 a8.4 8.4 0 1 0 -16.8 0zM-8.4 -84 a8.4 8.4 0 1 0 16.8 0 a8.4 8.4 0 1 0 -16.8 0zM-8.4 105 a8.4 8.4 0 1 0 16.8 0 a8.4 8.4 0 1 0 -16.8 0zM-8.4 -105 a8.4 8.4 0 1 0 16.8 0 a8.4 8.4 0 1 0 -16.8 0zM-8.4 126 a8.4 8.4 0 1 0 16.8 0 a8.4 8.4 0 1 0 -16.8 0zM-8.4 -126 a8.4 8.4 0 1 0 16.8 0 a8.4 8.4 0 1 0 -16.8 0zM-8.4 147 a8.4 8.4 0 1 0 16.8 0 a8.4 8.4 0 1 0 -16.8 0zM-8.4 -147 a8.4 8.4 0 1 0 16.8 0 a8.4 8.4 0 1 0 -16.8 0zM-8.4 168 a8.4 8.4 0 1 0 16.8 0 a8.4 8.4 0 1 0 -16.8 0zM-8.4 -168 a8.4 8.4 0 1 0 16.8 0 a8.4 8.4 0 1 0 -16.8 0z" id="SvgjsPath2488"></path>
        <path d="M-8.4 0 a8.4 8.4 0 1 0 16.8 0 a8.4 8.4 0 1 0 -16.8 0zM-8.4 21 a8.4 8.4 0 1 0 16.8 0 a8.4 8.4 0 1 0 -16.8 0zM-8.4 -21 a8.4 8.4 0 1 0 16.8 0 a8.4 8.4 0 1 0 -16.8 0zM-8.4 42 a8.4 8.4 0 1 0 16.8 0 a8.4 8.4 0 1 0 -16.8 0zM-8.4 -42 a8.4 8.4 0 1 0 16.8 0 a8.4 8.4 0 1 0 -16.8 0zM-8.4 63 a8.4 8.4 0 1 0 16.8 0 a8.4 8.4 0 1 0 -16.8 0zM-8.4 -63 a8.4 8.4 0 1 0 16.8 0 a8.4 8.4 0 1 0 -16.8 0zM-8.4 84 a8.4 8.4 0 1 0 16.8 0 a8.4 8.4 0 1 0 -16.8 0zM-8.4 -84 a8.4 8.4 0 1 0 16.8 0 a8.4 8.4 0 1 0 -16.8 0zM-8.4 105 a8.4 8.4 0 1 0 16.8 0 a8.4 8.4 0 1 0 -16.8 0zM-8.4 -105 a8.4 8.4 0 1 0 16.8 0 a8.4 8.4 0 1 0 -16.8 0zM-8.4 126 a8.4 8.4 0 1 0 16.8 0 a8.4 8.4 0 1 0 -16.8 0zM-8.4 -126 a8.4 8.4 0 1 0 16.8 0 a8.4 8.4 0 1 0 -16.8 0zM-8.4 147 a8.4 8.4 0 1 0 16.8 0 a8.4 8.4 0 1 0 -16.8 0zM-8.4 -147 a8.4 8.4 0 1 0 16.8 0 a8.4 8.4 0 1 0 -16.8 0zM-8.4 168 a8.4 8.4 0 1 0 16.8 0 a8.4 8.4 0 1 0 -16.8 0zM-8.4 -168 a8.4 8.4 0 1 0 16.8 0 a8.4 8.4 0 1 0 -16.8 0zM-8.4 189 a8.4 8.4 0 1 0 16.8 0 a8.4 8.4 0 1 0 -16.8 0zM-8.4 -189 a8.4 8.4 0 1 0 16.8 0 a8.4 8.4 0 1 0 -16.8 0z" id="SvgjsPath2483"></path>
        <path d="M-8.4 0 a8.4 8.4 0 1 0 16.8 0 a8.4 8.4 0 1 0 -16.8 0zM-8.4 21 a8.4 8.4 0 1 0 16.8 0 a8.4 8.4 0 1 0 -16.8 0zM-8.4 -21 a8.4 8.4 0 1 0 16.8 0 a8.4 8.4 0 1 0 -16.8 0zM-8.4 42 a8.4 8.4 0 1 0 16.8 0 a8.4 8.4 0 1 0 -16.8 0zM-8.4 -42 a8.4 8.4 0 1 0 16.8 0 a8.4 8.4 0 1 0 -16.8 0zM-8.4 63 a8.4 8.4 0 1 0 16.8 0 a8.4 8.4 0 1 0 -16.8 0zM-8.4 -63 a8.4 8.4 0 1 0 16.8 0 a8.4 8.4 0 1 0 -16.8 0zM-8.4 84 a8.4 8.4 0 1 0 16.8 0 a8.4 8.4 0 1 0 -16.8 0zM-8.4 -84 a8.4 8.4 0 1 0 16.8 0 a8.4 8.4 0 1 0 -16.8 0zM-8.4 105 a8.4 8.4 0 1 0 16.8 0 a8.4 8.4 0 1 0 -16.8 0zM-8.4 -105 a8.4 8.4 0 1 0 16.8 0 a8.4 8.4 0 1 0 -16.8 0zM-8.4 126 a8.4 8.4 0 1 0 16.8 0 a8.4 8.4 0 1 0 -16.8 0zM-8.4 -126 a8.4 8.4 0 1 0 16.8 0 a8.4 8.4 0 1 0 -16.8 0zM-8.4 147 a8.4 8.4 0 1 0 16.8 0 a8.4 8.4 0 1 0 -16.8 0zM-8.4 -147 a8.4 8.4 0 1 0 16.8 0 a8.4 8.4 0 1 0 -16.8 0zM-8.4 168 a8.4 8.4 0 1 0 16.8 0 a8.4 8.4 0 1 0 -16.8 0zM-8.4 -168 a8.4 8.4 0 1 0 16.8 0 a8.4 8.4 0 1 0 -16.8 0zM-8.4 189 a8.4 8.4 0 1 0 16.8 0 a8.4 8.4 0 1 0 -16.8 0zM-8.4 -189 a8.4 8.4 0 1 0 16.8 0 a8.4 8.4 0 1 0 -16.8 0zM-8.4 210 a8.4 8.4 0 1 0 16.8 0 a8.4 8.4 0 1 0 -16.8 0zM-8.4 -210 a8.4 8.4 0 1 0 16.8 0 a8.4 8.4 0 1 0 -16.8 0z" id="SvgjsPath2487"></path>
        <path d="M-8.4 0 a8.4 8.4 0 1 0 16.8 0 a8.4 8.4 0 1 0 -16.8 0zM-8.4 21 a8.4 8.4 0 1 0 16.8 0 a8.4 8.4 0 1 0 -16.8 0zM-8.4 -21 a8.4 8.4 0 1 0 16.8 0 a8.4 8.4 0 1 0 -16.8 0zM-8.4 42 a8.4 8.4 0 1 0 16.8 0 a8.4 8.4 0 1 0 -16.8 0zM-8.4 -42 a8.4 8.4 0 1 0 16.8 0 a8.4 8.4 0 1 0 -16.8 0zM-8.4 63 a8.4 8.4 0 1 0 16.8 0 a8.4 8.4 0 1 0 -16.8 0zM-8.4 -63 a8.4 8.4 0 1 0 16.8 0 a8.4 8.4 0 1 0 -16.8 0zM-8.4 84 a8.4 8.4 0 1 0 16.8 0 a8.4 8.4 0 1 0 -16.8 0zM-8.4 -84 a8.4 8.4 0 1 0 16.8 0 a8.4 8.4 0 1 0 -16.8 0zM-8.4 105 a8.4 8.4 0 1 0 16.8 0 a8.4 8.4 0 1 0 -16.8 0zM-8.4 -105 a8.4 8.4 0 1 0 16.8 0 a8.4 8.4 0 1 0 -16.8 0zM-8.4 126 a8.4 8.4 0 1 0 16.8 0 a8.4 8.4 0 1 0 -16.8 0zM-8.4 -126 a8.4 8.4 0 1 0 16.8 0 a8.4 8.4 0 1 0 -16.8 0zM-8.4 147 a8.4 8.4 0 1 0 16.8 0 a8.4 8.4 0 1 0 -16.8 0zM-8.4 -147 a8.4 8.4 0 1 0 16.8 0 a8.4 8.4 0 1 0 -16.8 0zM-8.4 168 a8.4 8.4 0 1 0 16.8 0 a8.4 8.4 0 1 0 -16.8 0zM-8.4 -168 a8.4 8.4 0 1 0 16.8 0 a8.4 8.4 0 1 0 -16.8 0zM-8.4 189 a8.4 8.4 0 1 0 16.8 0 a8.4 8.4 0 1 0 -16.8 0zM-8.4 -189 a8.4 8.4 0 1 0 16.8 0 a8.4 8.4 0 1 0 -16.8 0zM-8.4 210 a8.4 8.4 0 1 0 16.8 0 a8.4 8.4 0 1 0 -16.8 0zM-8.4 -210 a8.4 8.4 0 1 0 16.8 0 a8.4 8.4 0 1 0 -16.8 0zM-8.4 231 a8.4 8.4 0 1 0 16.8 0 a8.4 8.4 0 1 0 -16.8 0zM-8.4 -231 a8.4 8.4 0 1 0 16.8 0 a8.4 8.4 0 1 0 -16.8 0z" id="SvgjsPath2486"></path>
        <path d="M-8.4 0 a8.4 8.4 0 1 0 16.8 0 a8.4 8.4 0 1 0 -16.8 0zM-8.4 21 a8.4 8.4 0 1 0 16.8 0 a8.4 8.4 0 1 0 -16.8 0zM-8.4 -21 a8.4 8.4 0 1 0 16.8 0 a8.4 8.4 0 1 0 -16.8 0zM-8.4 42 a8.4 8.4 0 1 0 16.8 0 a8.4 8.4 0 1 0 -16.8 0zM-8.4 -42 a8.4 8.4 0 1 0 16.8 0 a8.4 8.4 0 1 0 -16.8 0zM-8.4 63 a8.4 8.4 0 1 0 16.8 0 a8.4 8.4 0 1 0 -16.8 0zM-8.4 -63 a8.4 8.4 0 1 0 16.8 0 a8.4 8.4 0 1 0 -16.8 0zM-8.4 84 a8.4 8.4 0 1 0 16.8 0 a8.4 8.4 0 1 0 -16.8 0zM-8.4 -84 a8.4 8.4 0 1 0 16.8 0 a8.4 8.4 0 1 0 -16.8 0zM-8.4 105 a8.4 8.4 0 1 0 16.8 0 a8.4 8.4 0 1 0 -16.8 0zM-8.4 -105 a8.4 8.4 0 1 0 16.8 0 a8.4 8.4 0 1 0 -16.8 0zM-8.4 126 a8.4 8.4 0 1 0 16.8 0 a8.4 8.4 0 1 0 -16.8 0zM-8.4 -126 a8.4 8.4 0 1 0 16.8 0 a8.4 8.4 0 1 0 -16.8 0zM-8.4 147 a8.4 8.4 0 1 0 16.8 0 a8.4 8.4 0 1 0 -16.8 0zM-8.4 -147 a8.4 8.4 0 1 0 16.8 0 a8.4 8.4 0 1 0 -16.8 0zM-8.4 168 a8.4 8.4 0 1 0 16.8 0 a8.4 8.4 0 1 0 -16.8 0zM-8.4 -168 a8.4 8.4 0 1 0 16.8 0 a8.4 8.4 0 1 0 -16.8 0zM-8.4 189 a8.4 8.4 0 1 0 16.8 0 a8.4 8.4 0 1 0 -16.8 0zM-8.4 -189 a8.4 8.4 0 1 0 16.8 0 a8.4 8.4 0 1 0 -16.8 0zM-8.4 210 a8.4 8.4 0 1 0 16.8 0 a8.4 8.4 0 1 0 -16.8 0zM-8.4 -210 a8.4 8.4 0 1 0 16.8 0 a8.4 8.4 0 1 0 -16.8 0zM-8.4 231 a8.4 8.4 0 1 0 16.8 0 a8.4 8.4 0 1 0 -16.8 0zM-8.4 -231 a8.4 8.4 0 1 0 16.8 0 a8.4 8.4 0 1 0 -16.8 0zM-8.4 252 a8.4 8.4 0 1 0 16.8 0 a8.4 8.4 0 1 0 -16.8 0zM-8.4 -252 a8.4 8.4 0 1 0 16.8 0 a8.4 8.4 0 1 0 -16.8 0z" id="SvgjsPath2482"></path>
        <path d="M-8.4 0 a8.4 8.4 0 1 0 16.8 0 a8.4 8.4 0 1 0 -16.8 0zM-8.4 21 a8.4 8.4 0 1 0 16.8 0 a8.4 8.4 0 1 0 -16.8 0zM-8.4 -21 a8.4 8.4 0 1 0 16.8 0 a8.4 8.4 0 1 0 -16.8 0zM-8.4 42 a8.4 8.4 0 1 0 16.8 0 a8.4 8.4 0 1 0 -16.8 0zM-8.4 -42 a8.4 8.4 0 1 0 16.8 0 a8.4 8.4 0 1 0 -16.8 0zM-8.4 63 a8.4 8.4 0 1 0 16.8 0 a8.4 8.4 0 1 0 -16.8 0zM-8.4 -63 a8.4 8.4 0 1 0 16.8 0 a8.4 8.4 0 1 0 -16.8 0zM-8.4 84 a8.4 8.4 0 1 0 16.8 0 a8.4 8.4 0 1 0 -16.8 0zM-8.4 -84 a8.4 8.4 0 1 0 16.8 0 a8.4 8.4 0 1 0 -16.8 0zM-8.4 105 a8.4 8.4 0 1 0 16.8 0 a8.4 8.4 0 1 0 -16.8 0zM-8.4 -105 a8.4 8.4 0 1 0 16.8 0 a8.4 8.4 0 1 0 -16.8 0zM-8.4 126 a8.4 8.4 0 1 0 16.8 0 a8.4 8.4 0 1 0 -16.8 0zM-8.4 -126 a8.4 8.4 0 1 0 16.8 0 a8.4 8.4 0 1 0 -16.8 0zM-8.4 147 a8.4 8.4 0 1 0 16.8 0 a8.4 8.4 0 1 0 -16.8 0zM-8.4 -147 a8.4 8.4 0 1 0 16.8 0 a8.4 8.4 0 1 0 -16.8 0zM-8.4 168 a8.4 8.4 0 1 0 16.8 0 a8.4 8.4 0 1 0 -16.8 0zM-8.4 -168 a8.4 8.4 0 1 0 16.8 0 a8.4 8.4 0 1 0 -16.8 0zM-8.4 189 a8.4 8.4 0 1 0 16.8 0 a8.4 8.4 0 1 0 -16.8 0zM-8.4 -189 a8.4 8.4 0 1 0 16.8 0 a8.4 8.4 0 1 0 -16.8 0zM-8.4 210 a8.4 8.4 0 1 0 16.8 0 a8.4 8.4 0 1 0 -16.8 0zM-8.4 -210 a8.4 8.4 0 1 0 16.8 0 a8.4 8.4 0 1 0 -16.8 0zM-8.4 231 a8.4 8.4 0 1 0 16.8 0 a8.4 8.4 0 1 0 -16.8 0zM-8.4 -231 a8.4 8.4 0 1 0 16.8 0 a8.4 8.4 0 1 0 -16.8 0zM-8.4 252 a8.4 8.4 0 1 0 16.8 0 a8.4 8.4 0 1 0 -16.8 0zM-8.4 -252 a8.4 8.4 0 1 0 16.8 0 a8.4 8.4 0 1 0 -16.8 0zM-8.4 273 a8.4 8.4 0 1 0 16.8 0 a8.4 8.4 0 1 0 -16.8 0zM-8.4 -273 a8.4 8.4 0 1 0 16.8 0 a8.4 8.4 0 1 0 -16.8 0z" id="SvgjsPath2490"></path>
    </defs>
</svg>