<?xml version="1.0" encoding="UTF-8" standalone="no"?>
<svg
   width="513.328pt"
   height="471.711pt"
   version="1.1"
   viewBox="0 0 513.328 471.711"
   id="svg250"
   sodipodi:docname="musicburger.svg"
   inkscape:version="1.1.1 (c3084ef, 2021-09-22)"
   xmlns:inkscape="http://www.inkscape.org/namespaces/inkscape"
   xmlns:sodipodi="http://sodipodi.sourceforge.net/DTD/sodipodi-0.dtd"
   xmlns="http://www.w3.org/2000/svg"
   xmlns:svg="http://www.w3.org/2000/svg">
  <defs
     id="defs254" />
  <sodipodi:namedview
     id="namedview252"
     pagecolor="#ffffff"
     bordercolor="#666666"
     borderopacity="1.0"
     inkscape:pageshadow="2"
     inkscape:pageopacity="0.0"
     inkscape:pagecheckerboard="0"
     inkscape:document-units="pt"
     showgrid="false"
     inkscape:zoom="0.66535714"
     inkscape:cx="341.92163"
     inkscape:cy="408.05153"
     inkscape:window-width="1312"
     inkscape:window-height="847"
     inkscape:window-x="0"
     inkscape:window-y="25"
     inkscape:window-maximized="0"
     inkscape:current-layer="g248" />
  <g
     id="g248"
     transform="translate(-93.332,-44.145)">
    <path
       d="m 93.332,460.36 h 152.61 v 55.496 H 93.332 Z"
       id="path220"
       style="fill:#ffffff" />
    <path
       d="m 93.332,377.12 h 152.61 v 55.496 H 93.332 Z"
       id="path222"
       style="fill:#ffffff" />
    <path
       d="m 93.332,293.88 h 152.61 v 55.496 H 93.332 Z"
       id="path224"
       style="fill:#ffffff" />
    <path
       d="m 93.332,210.63 h 152.61 v 55.496 H 93.332 Z"
       id="path226"
       style="fill:#ffffff" />
    <path
       d="m 93.332,127.39 h 152.61 v 55.496 H 93.332 Z"
       id="path228"
       style="fill:#ffffff" />
    <path
       d="m 93.332,44.145 h 152.61 V 99.641 H 93.332 Z"
       id="path230"
       style="fill:#ffffff" />
    <path
       d="m 273.7,460.36 h 152.61 v 55.496 H 273.7 Z"
       id="path232"
       style="fill:#ffffff" />
    <path
       d="m 273.7,377.12 h 152.61 v 55.496 H 273.7 Z"
       id="path234"
       style="fill:#ffffff" />
    <path
       d="m 273.7,293.88 h 152.61 v 55.496 H 273.7 Z"
       id="path236"
       style="fill:#ffffff" />
    <path
       d="m 454.05,460.36 h 152.61 v 55.496 H 454.05 Z"
       id="path238"
       style="fill:#ffffff" />
    <path
       d="m 454.05,377.12 h 152.61 v 55.496 H 454.05 Z"
       id="path240"
       style="fill:#ffffff" />
    <path
       d="m 454.05,293.88 h 152.61 v 55.496 H 454.05 Z"
       id="path242"
       style="fill:#ffffff" />
    <path
       d="m 454.05,210.63 h 152.61 v 55.496 H 454.05 Z"
       id="path244"
       style="fill:#ffffff" />
    <path
       d="m 454.05,127.39 h 152.61 v 55.496 H 454.05 Z"
       id="path246"
       style="fill:#ffffff" />
  </g>
</svg>
